<?xml version="1.0" encoding="utf-8"?>
<!-- Generator: Adobe Illustrator 16.0.0, SVG Export Plug-In . SVG Version: 6.00 Build 0)  -->
<!DOCTYPE svg PUBLIC "-//W3C//DTD SVG 1.1//EN" "http://www.w3.org/Graphics/SVG/1.1/DTD/svg11.dtd">
<svg version="1.1" id="Layer_1" xmlns="http://www.w3.org/2000/svg" xmlns:xlink="http://www.w3.org/1999/xlink" x="0px" y="0px"
	 width="100px" height="100px" viewBox="0 0 100 100" enable-background="new 0 0 100 100" xml:space="preserve">
<g>
	<g>
		<polygon fill="#EF3B3B" points="75.731,10.567 83.208,21.085 70.201,21.65 		"/>
	</g>
	<g>
		<ellipse cx="48.308" cy="87.377" rx="35.879" ry="4.632"/>
	</g>
	<g>
		<path fill="#FFD85C" d="M81.104,78.99c0,4.171-2.625,8.553-9.553,8.553H26.156c-6.928,0-9.553-4.382-9.553-8.553l0,0
			c0-4.171,3.381-3.553,7.553-3.553h49.395C77.723,75.438,81.104,74.819,81.104,78.99L81.104,78.99z"/>
	</g>
	<g>
		<path fill="#EABF5E" d="M16.979,75.438c0,0,0.112,0.982-0.054,2.384c-0.006,0.053,53.987,0.105,53.979,0.158
			c-0.463,3.542-2.719,9.515-12.676,9.397c0,0,21.336,1.902,22.543-5.903c0,0,1.457-6.075-4.168-6.056S16.979,75.438,16.979,75.438z
			"/>
	</g>
	<g>
		<path fill="#FFE298" d="M24.379,75.438c0,0-1.384,12.105,12.75,11.939c0,0-19.318,1.902-20.525-5.903c0,0-3.475-6.075,2.15-6.056
			S24.379,75.438,24.379,75.438z"/>
	</g>
	<g>
		<path d="M71.551,89.043H26.156c-8.158,0-11.053-5.415-11.053-10.053c0-5.085,4.287-5.085,6.346-5.085
			c0.416,0,0.848,0.008,1.294,0.016c0.457,0.008,0.929,0.017,1.412,0.017h49.395c0.482,0,0.955-0.009,1.412-0.017
			c0.446-0.008,0.879-0.016,1.295-0.016c2.06,0,6.346,0,6.346,5.085C82.604,83.628,79.709,89.043,71.551,89.043z M21.45,76.905
			c-3.086,0-3.346,0.509-3.346,2.085c0,1.654,0.581,7.053,8.053,7.053h45.395c7.472,0,8.053-5.398,8.053-7.053
			c0-1.576-0.26-2.085-3.346-2.085c-0.398,0-0.813,0.008-1.241,0.015c-0.475,0.009-0.965,0.018-1.466,0.018H24.156
			c-0.501,0-0.991-0.009-1.466-0.018C22.263,76.913,21.848,76.905,21.45,76.905z"/>
	</g>
	<g>
		<path fill="#FFD85C" d="M16.604,43.55c0-4.171,0-21.553,32.25-21.553s32.25,17.382,32.25,21.553l0,0
			c0,4.171-3.381,5.553-7.553,5.553H24.156C19.985,49.103,16.604,47.721,16.604,43.55L16.604,43.55z"/>
	</g>
	<g>
		<path fill="#EABF5E" d="M59.354,23.293c0,0,16.191,9.598,7.688,22.537c-0.046,0.068-47.091,0.137-47.137,0.206
			c-0.422,0.624-0.902,1.256-1.443,1.895l59.369,0.49l3.11-3.404l0.162-5.599l-4.25-9.354l-12.973-6.771H59.354z"/>
	</g>
	<g>
		<path fill="#FEE59B" d="M37.649,23.668c0,0-18.483,7.736-14.215,24.263l-5.538-1.325l-0.729-8.188l4.941-9.103l8.434-4.709
			L37.649,23.668z"/>
	</g>
	<g>
		<path d="M73.551,50.603H24.156c-5.753,0-9.053-2.571-9.053-7.053c0-15.081,11.67-23.053,33.75-23.053
			c22.08,0,33.75,7.972,33.75,23.053C82.604,48.032,79.304,50.603,73.551,50.603z M48.854,23.498
			c-14.028,0-30.75,3.479-30.75,20.053c0,1.108,0,4.053,6.053,4.053h49.395c6.053,0,6.053-2.944,6.053-4.053
			C79.604,26.977,62.881,23.498,48.854,23.498z"/>
	</g>
	<g>
		<path fill="#CD4D27" d="M81.104,69.943c0,3.587-2.907,5.494-6.493,5.494H23.434c-3.586,0-6.494-1.907-6.494-5.494l0,0
			c0-3.586,2.907-5.493,6.494-5.493H74.61C78.196,64.45,81.104,66.357,81.104,69.943L81.104,69.943z"/>
	</g>
	<g>
		<path fill="#BB3326" d="M18.77,64.627v1.323l0,1c0.135,0,50.269,0.003,50.399,0.009c2.01,0.093,3.578,0.908,3.578,2.969
			c0,2.196-1.781,3.978-3.978,3.978H68.77v1.222h10.959v-10.5H18.77z"/>
	</g>
	<g>
		<path fill="#DD5839" d="M27.275,64.627v1.323h0c-2.197,0-3.977,1.781-3.977,3.978s1.78,3.978,3.977,3.978h0v1.222L16.94,73.168
			l1.706-7.734L27.275,64.627z"/>
	</g>
	<g>
		<path d="M74.61,76.938H23.434c-4.781,0-7.994-2.811-7.994-6.994c0-4.183,3.212-6.993,7.994-6.993H74.61
			c4.781,0,7.993,2.811,7.993,6.993C82.604,74.127,79.392,76.938,74.61,76.938z M23.434,65.95c-2.414,0-4.994,1.049-4.994,3.993
			c0,2.945,2.58,3.994,4.994,3.994H74.61c2.414,0,4.993-1.049,4.993-3.994c0-2.944-2.579-3.993-4.993-3.993H23.434z"/>
	</g>
	<g>
		<path fill="#CD4D27" d="M81.104,54.924c0,3.587-2.907,5.494-6.493,5.494H23.434c-3.586,0-6.494-1.907-6.494-5.494l0,0
			c0-3.586,2.907-5.493,6.494-5.493H74.61C78.196,49.431,81.104,51.338,81.104,54.924L81.104,54.924z"/>
	</g>
	<g>
		<path fill="#BB3326" d="M18.77,49.674v1.323l0,1c0.056,0,50.11,0,50.165,0.002c2.121,0.039,3.813,0.834,3.813,2.975
			c0,2.197-1.781,3.979-3.978,3.979H68.77v1.221h10.959v-10.5H18.77z"/>
	</g>
	<g>
		<path fill="#DD5839" d="M27.275,49.674v1.323h0c-2.197,0-3.977,1.782-3.977,3.977c0,2.197,1.78,3.979,3.977,3.979h0v1.221
			l-9.213-1.256l-0.167-7.875L27.275,49.674z"/>
	</g>
	<g>
		<path d="M74.61,61.918H23.434c-4.781,0-7.994-2.811-7.994-6.994c0-4.183,3.212-6.993,7.994-6.993H74.61
			c4.781,0,7.993,2.811,7.993,6.993C82.604,59.107,79.392,61.918,74.61,61.918z M23.434,50.931c-2.414,0-4.994,1.049-4.994,3.993
			c0,2.945,2.58,3.994,4.994,3.994H74.61c2.414,0,4.993-1.049,4.993-3.994c0-2.944-2.579-3.993-4.993-3.993H23.434z"/>
	</g>
	<g>
		<polygon fill="#F8B51C" points="75.354,64.45 66.541,64.45 59.354,70.45 51.979,64.45 21.729,64.45 21.729,60.418 75.354,60.418
					"/>
	</g>
	<g>
		<polygon fill="#EEA420" points="59.354,69.125 59.354,60.833 75.354,60.418 74.896,64.125 65.771,64.771 60.146,69.416 		"/>
	</g>
	<g>
		<path d="M59.354,71.95c-0.336,0-0.671-0.112-0.947-0.337l-6.961-5.663H21.729c-0.829,0-1.5-0.672-1.5-1.5v-4.032
			c0-0.828,0.671-1.5,1.5-1.5h53.625c0.828,0,1.5,0.672,1.5,1.5v4.032c0,0.828-0.672,1.5-1.5,1.5h-8.269l-6.771,5.651
			C60.037,71.834,59.695,71.95,59.354,71.95z M23.229,62.95h28.75c0.345,0,0.68,0.118,0.947,0.337l6.416,5.22l6.238-5.208
			c0.27-0.225,0.609-0.349,0.961-0.349h7.313v-1.032H23.229V62.95z"/>
	</g>
	<g>

			<ellipse transform="matrix(0.9875 -0.1576 0.1576 0.9875 -4.0505 6.0323)" fill="#EABF5E" cx="36.018" cy="28.561" rx="1.649" ry="0.67"/>
	</g>
	<g>

			<ellipse transform="matrix(0.9875 -0.1576 0.1576 0.9875 -5.0973 5.1392)" fill="#EABF5E" cx="29.862" cy="34.716" rx="1.649" ry="0.67"/>
	</g>
	<g>

			<ellipse transform="matrix(0.9999 0.0172 -0.0172 0.9999 0.6328 -0.7448)" fill="#EABF5E" cx="43.675" cy="36.466" rx="1.649" ry="0.67"/>
	</g>
	<g>

			<ellipse transform="matrix(0.9999 0.0172 -0.0172 0.9999 0.4583 -0.9224)" fill="#EABF5E" cx="53.925" cy="26.216" rx="1.649" ry="0.67"/>
	</g>
	<g>

			<ellipse transform="matrix(0.9999 0.0172 -0.0172 0.9999 0.5352 -0.8359)" fill="#EABF5E" cx="48.929" cy="30.734" rx="1.649" ry="0.67"/>
	</g>
	<g>

			<ellipse transform="matrix(0.9499 0.3126 -0.3126 0.9499 13.8349 -16.8574)" fill="#EABF5E" cx="59.488" cy="34.716" rx="1.649" ry="0.67"/>
	</g>
	<g>

			<ellipse transform="matrix(0.9499 0.3126 -0.3126 0.9499 14.2032 -20.7922)" fill="#D6A749" cx="71.943" cy="33.897" rx="1.649" ry="0.67"/>
	</g>
	<g>

			<ellipse transform="matrix(0.9499 0.3126 -0.3126 0.9499 12.7017 -18.9546)" fill="#EABF5E" cx="65.461" cy="30.134" rx="1.649" ry="0.67"/>
	</g>
	<g>
		<path d="M64.475,32.832c-0.221,0-0.445-0.049-0.656-0.152c-0.744-0.363-1.055-1.261-0.691-2.005L74.03,8.314
			c0.227-0.462,0.674-0.777,1.186-0.833c0.516-0.058,1.017,0.155,1.337,0.558l10.853,13.642c0.364,0.458,0.429,1.086,0.166,1.609
			c-0.264,0.522-0.84,0.848-1.392,0.824l-15.51-0.54c-0.238-0.008-0.461-0.071-0.656-0.176l-4.189,8.591
			C65.564,32.521,65.029,32.832,64.475,32.832z M71.379,20.596l11.653,0.406l-7.347-9.235L71.379,20.596z"/>
	</g>
</g>
</svg>
