<?xml version="1.0" encoding="UTF-8" standalone="no"?>
<!-- Created with Inkscape (http://www.inkscape.org/) -->

<svg
   xmlns:dc="http://purl.org/dc/elements/1.1/"
   xmlns:cc="http://creativecommons.org/ns#"
   xmlns:rdf="http://www.w3.org/1999/02/22-rdf-syntax-ns#"
   xmlns:svg="http://www.w3.org/2000/svg"
   xmlns="http://www.w3.org/2000/svg"
   xmlns:sodipodi="http://sodipodi.sourceforge.net/DTD/sodipodi-0.dtd"
   xmlns:inkscape="http://www.inkscape.org/namespaces/inkscape"
   width="100px"
   height="100px"
   viewBox="0 0 100 100"
   version="1.1"
   id="SVGRoot"
   inkscape:version="0.92.2 (unknown)"
   sodipodi:docname="buritto.svg">
  <sodipodi:namedview
     id="base"
     pagecolor="#ffffff"
     bordercolor="#666666"
     borderopacity="1.0"
     inkscape:pageopacity="0.0"
     inkscape:pageshadow="2"
     inkscape:zoom="2.56"
     inkscape:cx="50"
     inkscape:cy="50"
     inkscape:document-units="px"
     inkscape:current-layer="layer1"
     showgrid="false"
     inkscape:window-width="1557"
     inkscape:window-height="876"
     inkscape:window-x="43"
     inkscape:window-y="24"
     inkscape:window-maximized="1"
     inkscape:grid-bbox="true" />
  <defs
     id="defs5560" />
  <metadata
     id="metadata5563">
    <rdf:RDF>
      <cc:Work
         rdf:about="">
        <dc:format>image/svg+xml</dc:format>
        <dc:type
           rdf:resource="http://purl.org/dc/dcmitype/StillImage" />
        <dc:title></dc:title>
      </cc:Work>
    </rdf:RDF>
  </metadata>
  <g
     id="layer1"
     inkscape:groupmode="layer"
     inkscape:label="Layer 1">
    <path
       inkscape:connector-curvature="0"
       id="path172"
       style="fill:#80cc28;fill-opacity:1;fill-rule:nonzero;stroke:none;stroke-width:0.09947002"
       d="m 50.026474,27.214259 c 3.267391,0 5.932889,4.205593 8.679554,4.670118 3.232776,0.543106 7.198745,-2.429058 9.778001,-1.382634 3.023693,1.224477 3.677606,6.174104 5.911802,7.860121 2.592094,1.956576 7.470801,1.343841 9.170336,3.564011 2.034067,2.657839 0.08585,7.361776 1.128691,9.795808 2.093947,4.884973 7.353022,3.96388 6.265518,8.351503 -2.191128,3.405853 -8.931312,3.674422 -14.195467,5.579273 C 72.687836,67.1276 68.86401,72.019535 63.804265,72.676037 59.211137,73.271863 54.122649,69.581525 49.309991,69.557652 44.43407,69.532792 39.314845,73.16543 34.794331,72.558663 29.577228,71.858394 25.727439,66.945569 21.824037,65.54901 15.659989,63.344754 9.0374643,62.086459 9.0374643,58.418005 c 0.2529526,-4.4483 4.2212597,-2.78715 6.3722977,-7.573648 1.0662,-2.373354 -0.80508,-7.072318 1.271745,-9.649587 1.721657,-2.136615 6.551423,-1.365723 9.168678,-3.236754 2.235788,-1.598483 2.961223,-6.509318 5.972877,-7.66516 2.556379,-0.981769 6.440286,2.058035 9.631483,1.547754 2.713343,-0.433689 5.353974,-4.626351 8.571929,-4.626351" />
    <path
       inkscape:connector-curvature="0"
       id="path174"
       style="fill:#231f20;fill-opacity:1;fill-rule:nonzero;stroke:none;stroke-width:0.09947002"
       d="m 49.261847,68.065602 c 2.541559,0.01194 4.985935,0.867379 7.350238,1.693974 2.191126,0.765919 4.2605,1.490061 6.155901,1.490061 0.291447,0 0.575434,-0.0179 0.844301,-0.05272 2.833802,-0.368038 5.433156,-1.85412 7.947559,-3.292457 1.691389,-0.966849 3.288673,-1.879983 4.968028,-2.487745 1.603954,-0.579911 3.456186,-0.964859 5.247041,-1.336877 4.614908,-0.959886 7.644069,-1.75863 7.693799,-4.038483 0.04081,-1.864068 -0.481037,-2.210224 -1.742715,-3.048756 -1.189761,-0.789792 -2.81977,-1.872026 -3.948454,-4.505992 -0.557631,-1.302062 -0.549872,-2.897562 -0.541614,-4.587557 0.0096,-1.928724 0.01977,-3.924093 -0.854848,-5.066009 -0.570455,-0.746025 -2.177893,-1.080244 -3.732505,-1.402527 -1.72402,-0.359087 -3.677211,-0.764924 -5.151856,-1.876999 -1.24258,-0.938002 -2.014664,-2.477798 -2.761383,-3.966865 -0.793472,-1.581573 -1.613704,-3.21686 -2.811225,-3.702273 -0.781436,-0.315321 -2.290496,0.115384 -3.853667,0.612735 -1.464498,0.465519 -2.978332,0.94596 -4.524395,0.94596 -0.375299,0 -0.741747,-0.02984 -1.087903,-0.08753 -1.609027,-0.272548 -3.01991,-1.386612 -4.384837,-2.464867 -1.358363,-1.074276 -2.763078,-2.184362 -4.046838,-2.184362 -1.247255,0 -2.626606,1.095165 -3.960101,2.153526 -1.360352,1.080244 -2.767654,2.197293 -4.376681,2.453926 -0.318602,0.05073 -0.654711,0.07659 -0.998181,0.07659 h -3.99e-4 c -1.571327,0 -3.102271,-0.520228 -4.582683,-1.024541 -1.516122,-0.516249 -2.990666,-0.971822 -3.74992,-0.680375 -1.1824,0.453584 -2.016954,2.053062 -2.824352,3.59982 -0.766317,1.469173 -1.558496,2.987085 -2.815897,3.886295 -1.500604,1.072286 -3.460065,1.414463 -5.189152,1.714862 -1.534822,0.267575 -3.121668,0.544101 -3.686259,1.24437 -0.839626,1.042446 -0.740932,2.906514 -0.646128,4.708911 0.08937,1.688007 0.173297,3.282511 -0.426239,4.616404 -1.221233,2.718516 -3.068033,3.740072 -4.416309,4.486098 -1.327696,0.734088 -1.824658,1.008626 -1.824658,2.475809 0,3.834568 5.682224,6.189024 10.961098,6.753019 2.300244,0.246686 4.409009,1.527859 6.642012,2.884631 2.185257,1.32693 4.443922,2.700611 6.860347,3.023888 0.271952,0.0368 0.559817,0.05571 0.856338,0.05571 1.842085,0 3.879728,-0.691317 6.036537,-1.423416 2.386186,-0.809686 4.854634,-1.646229 7.376,-1.646229 z m 13.506139,6.168136 c -2.402002,0 -4.811066,-0.842511 -7.141251,-1.657171 -2.230317,-0.779845 -4.33739,-1.516918 -6.324105,-1.526865 -2.07027,0 -4.300885,0.755972 -6.458588,1.488072 -2.290894,0.776861 -4.659873,1.581573 -6.994732,1.581573 -0.428219,0 -0.850171,-0.02785 -1.253123,-0.08156 -3.03493,-0.407827 -5.679838,-2.014268 -8.013107,-3.432711 -1.939665,-1.178724 -3.772101,-2.291794 -5.409477,-2.466861 -6.783408,-0.725136 -13.628189,-4.011626 -13.628189,-9.72021 0,-3.226808 1.8654509,-4.258312 3.364494,-5.086897 1.195192,-0.661476 2.325112,-1.287142 3.139135,-3.098491 0.302687,-0.674407 0.234302,-1.976469 0.167855,-3.23576 -0.118896,-2.252996 -0.25334,-4.807386 1.30244,-6.738099 1.269795,-1.574611 3.418875,-1.949612 5.497301,-2.311684 1.484292,-0.258621 3.019015,-0.526196 3.966367,-1.202592 0.676794,-0.484419 1.301664,-1.682038 1.906243,-2.839869 1.014097,-1.943644 2.163871,-4.146905 4.399161,-5.004337 0.510978,-0.19695 1.078653,-0.29642 1.686713,-0.29642 1.339365,0 2.740101,0.476461 4.094585,0.938002 1.250835,0.424737 2.543547,0.864395 3.621404,0.864395 h 3.99e-4 c 0.178349,0 0.353914,-0.01094 0.526793,-0.03879 0.837338,-0.134284 1.933498,-1.003653 2.992654,-1.845169 1.65369,-1.312009 3.528103,-2.800081 5.815516,-2.800081 2.320834,0 4.22091,1.501997 5.897477,2.826938 1.069303,0.845495 2.175907,1.718842 3.030753,1.864068 1.118241,0.185015 2.722196,-0.287469 4.211958,-0.760945 1.343243,-0.425732 2.732342,-0.867379 4.054597,-0.867379 0.662868,0 1.276699,0.112401 1.823483,0.334219 2.239567,0.907167 3.365275,3.150216 4.357585,5.129669 0.593336,1.182698 1.206867,2.405185 1.892614,2.922429 0.939201,0.709222 2.475513,1.02852 3.960603,1.336877 2.089661,0.434684 4.249948,0.883294 5.495713,2.511619 1.493636,1.951601 1.480409,4.57761 1.468778,6.894267 -0.006,1.311014 -0.0132,2.665796 0.300686,3.397895 0.777865,1.815328 1.787387,2.485756 2.856284,3.194977 1.477227,0.98177 3.151904,2.093845 3.075019,5.599168 -0.106137,4.825291 -5.399335,5.924434 -10.069844,6.895262 -1.689001,0.351129 -3.435192,0.714194 -4.839018,1.221492 -1.43724,0.520228 -2.925806,1.371691 -4.502209,2.272889 -2.63705,1.507966 -5.625827,3.216861 -9.044711,3.660497 -0.39599,0.05073 -0.809387,0.07759 -1.228256,0.07759" />
    <path
       inkscape:connector-curvature="0"
       id="path176"
       style="fill:#231f20;fill-opacity:1;fill-rule:nonzero;stroke:none;stroke-width:0.09947002"
       d="m 89.369254,71.297383 c 0,3.525217 -17.613949,6.384981 -39.343576,6.384981 -21.728729,0 -39.342681,-2.859764 -39.342681,-6.384981 0,-3.525218 17.613952,-6.384981 39.342681,-6.384981 21.729627,0 39.343576,2.859763 39.343576,6.384981" />
    <path
       inkscape:connector-curvature="0"
       id="path178"
       style="fill:#fbd73f;fill-opacity:1;fill-rule:nonzero;stroke:none;stroke-width:0.09947002"
       d="m 14.962924,65.773812 c 0,-4.148894 2.98407,-30.391075 35.063151,-30.391075 32.079083,0 35.063177,26.242181 35.063177,30.391075 0,4.148895 -3.362873,5.523571 -7.512668,5.523571 H 22.475665 c -4.14979,0 -7.512741,-1.374676 -7.512741,-5.523571" />
    <path
       inkscape:connector-curvature="0"
       id="path180"
       style="fill:#e6bb45;fill-opacity:1;fill-rule:nonzero;stroke:none;stroke-width:0.09947002"
       d="m 59.147775,37.216965 c 0,0 21.410627,9.502371 17.031556,31.227617 l -58.599083,0.219829 c -0.448023,0.661476 1.598086,1.333893 1.023049,2.013273 l 63.06907,0.520229 3.304287,-3.61673 0.172481,-5.947313 -4.515041,-9.937055 -9.658639,-12.697348 -11.82768,-1.782502" />
    <path
       inkscape:connector-curvature="0"
       id="path182"
       style="fill:#fbe586;fill-opacity:1;fill-rule:nonzero;stroke:none;stroke-width:0.09947002"
       d="m 43.020104,37.477576 c 0,0 -26.744256,6.755009 -23.794323,33.459725 L 15.300972,69.981394 V 60.65608 l 5.835727,-13.05544 14.547491,-9.698327 7.335914,-0.424737" />
    <path
       inkscape:connector-curvature="0"
       id="path184"
       style="fill:#231f20;fill-opacity:1;fill-rule:nonzero;stroke:none;stroke-width:0.09947002"
       d="m 50.026075,36.874788 c -33.187595,0 -33.571102,28.610562 -33.571102,28.899024 0,1.102129 0,4.03152 6.020692,4.03152 h 55.100919 c 6.020617,0 6.020617,-2.929391 6.020617,-4.03152 0,-0.288462 -0.383457,-28.899024 -33.571126,-28.899024 z M 77.576584,72.789433 H 22.475665 c -5.722282,0 -9.004792,-2.557374 -9.004792,-7.015621 0,-8.867752 6.566981,-31.883125 36.555202,-31.883125 29.988325,0 36.555223,23.015373 36.555223,31.883125 0,4.458247 -3.282507,7.015621 -9.004714,7.015621" />
    <path
       inkscape:connector-curvature="0"
       id="path186"
       style="fill:#e6bb45;fill-opacity:1;fill-rule:nonzero;stroke:none;stroke-width:0.09947002"
       d="m 38.407977,49.661659 c 0,0.789792 -0.667941,1.429384 -1.49205,1.429384 -0.824607,0 -1.492051,-0.639592 -1.492051,-1.429384 0,-0.789792 0.667444,-1.430379 1.492051,-1.430379 0.824109,0 1.49205,0.640587 1.49205,1.430379" />
    <path
       inkscape:connector-curvature="0"
       id="path188"
       style="fill:#e6bb45;fill-opacity:1;fill-rule:nonzero;stroke:none;stroke-width:0.09947002"
       d="m 45.197104,57.288025 c 0,0.686343 -0.554843,1.243376 -1.239396,1.243376 -0.684653,0 -1.239894,-0.557033 -1.239894,-1.243376 0,-0.687337 0.555241,-1.243375 1.239894,-1.243375 0.684553,0 1.239396,0.556038 1.239396,1.243375" />
    <path
       inkscape:connector-curvature="0"
       id="path190"
       style="fill:#e6bb45;fill-opacity:1;fill-rule:nonzero;stroke:none;stroke-width:0.09947002"
       d="m 53.802852,49.081748 c 0,0.571953 -0.470492,1.036478 -1.051398,1.036478 -0.580904,0 -1.051795,-0.464525 -1.051795,-1.036478 0,-0.572947 0.470891,-1.036477 1.051795,-1.036477 0.580906,0 1.051398,0.46353 1.051398,1.036477" />
    <path
       inkscape:connector-curvature="0"
       id="path192"
       style="fill:#e6bb45;fill-opacity:1;fill-rule:nonzero;stroke:none;stroke-width:0.09947002"
       d="m 30.233133,61.515501 c 0,0.617709 -0.480241,1.119037 -1.072784,1.119037 -0.592145,0 -1.072387,-0.501328 -1.072387,-1.119037 0,-0.617709 0.480242,-1.119037 1.072387,-1.119037 0.592543,0 1.072784,0.501328 1.072784,1.119037" />
    <path
       inkscape:connector-curvature="0"
       id="path194"
       style="fill:#e6bb45;fill-opacity:1;fill-rule:nonzero;stroke:none;stroke-width:0.09947002"
       d="m 60.656934,60.396464 c 0,0.892245 -0.723445,1.616387 -1.616388,1.616387 -0.892445,0 -1.616388,-0.724142 -1.616388,-1.616387 0,-0.893242 0.723943,-1.616388 1.616388,-1.616388 0.892943,0 1.616388,0.723146 1.616388,1.616388" />
    <path
       inkscape:connector-curvature="0"
       id="path196"
       style="fill:#e6bb45;fill-opacity:1;fill-rule:nonzero;stroke:none;stroke-width:0.09947002"
       d="m 68.285489,54.206444 c 0,0.518239 -0.419665,0.938002 -0.938003,0.938002 -0.518338,0 -0.938002,-0.419763 -0.938002,-0.938002 0,-0.518239 0.419664,-0.937008 0.938002,-0.937008 0.518338,0 0.938003,0.418769 0.938003,0.937008" />
    <path
       inkscape:connector-curvature="0"
       id="path198"
       style="fill:#fbd73f;fill-opacity:1;fill-rule:nonzero;stroke:none;stroke-width:0.09947002"
       d="m 77.80348,60.396464 c 0,0.689326 -0.536146,1.249343 -1.197519,1.249343 -0.660486,0 -1.196326,-0.560017 -1.196326,-1.249343 0,-0.689328 0.53584,-1.24835 1.196326,-1.24835 0.661373,0 1.197519,0.559022 1.197519,1.24835" />
  </g>
</svg>
