<?xml version="1.0" encoding="UTF-8" standalone="no"?>
<svg
   xmlns:dc="http://purl.org/dc/elements/1.1/"
   xmlns:cc="http://creativecommons.org/ns#"
   xmlns:rdf="http://www.w3.org/1999/02/22-rdf-syntax-ns#"
   xmlns:svg="http://www.w3.org/2000/svg"
   xmlns="http://www.w3.org/2000/svg"
   id="SVGRoot"
   version="1.1"
   viewBox="0 0 100 100"
   height="100px"
   width="100px">
  <defs
     id="defs5560" />
  <metadata
     id="metadata5563">
    <rdf:RDF>
      <cc:Work
         rdf:about="">
        <dc:format>image/svg+xml</dc:format>
        <dc:type
           rdf:resource="http://purl.org/dc/dcmitype/StillImage" />
        <dc:title></dc:title>
      </cc:Work>
    </rdf:RDF>
  </metadata>
  <g
     id="layer1">
    <path
       d="m 70.482934,87.98567 c 0,2.103856 -9.70427,3.810679 -21.674002,3.810679 -11.969732,0 -21.673005,-1.706823 -21.673005,-3.810679 0,-2.103856 9.703273,-3.810687 21.673005,-3.810687 11.969732,0 21.674002,1.706831 21.674002,3.810687"
       style="fill:#231f20;fill-opacity:1;fill-rule:nonzero;stroke:none;stroke-width:0.09975608"
       id="path562" />
    <path
       d="m 63.772343,87.378156 c 0,0 -3.311901,0 -16.958533,0 -13.910985,0 -12.968291,0 -12.968291,0 L 29.855276,60.44401 c 0,0 5.646195,0 16.958534,0 11.548762,0 20.948777,0 20.948777,0 l -3.990244,26.934146"
       style="fill:#ebe8d5;fill-opacity:1;fill-rule:nonzero;stroke:none;stroke-width:0.09975608"
       id="path564" />
    <path
       d="m 62.922422,60.695396 -3.651073,26.481247 4.534912,-0.165593 5.00576,-26.519157 -5.767897,-0.14265 -0.121702,0.346153"
       style="fill:#dcd7c6;fill-opacity:1;fill-rule:nonzero;stroke:none;stroke-width:0.09975608"
       id="path566" />
    <path
       d="M 31.434415,35.03913 C 31.417455,34.874533 29.613867,18.488599 28.568423,12.283771 28.523533,12.012435 28.382877,11.36801 28.06665,11.232342 l -0.003,-9.94e-4 c -0.66134,-0.27134 -2.283374,0.485809 -3.155242,1.114272 l -0.08679,0.05886 -9.239408,5.743955 -1.581133,-2.541785 9.196513,-5.7170212 c 0.677341,-0.4848148 3.596203,-2.4081117 5.993342,-1.4305026 0.892817,0.363113 1.974173,1.2180221 2.328307,3.3278638 1.060407,6.289621 2.817111,22.248598 2.890931,22.925942 l -2.975724,0.326202"
       style="fill:#231f20;fill-opacity:1;fill-rule:nonzero;stroke:none;stroke-width:0.09975608"
       id="path568" />
    <path
       d="m 24.173171,20.46377 c 0,0 8.299705,0 21.946337,0 13.910985,0 26.934141,0 26.934141,0 l 1.993126,5.985364 c 0,0 -17.61393,0 -28.927267,0 -11.547763,0 -23.941459,0 -23.941459,0 l 1.995122,-5.985364"
       style="fill:#ebe8d5;fill-opacity:1;fill-rule:nonzero;stroke:none;stroke-width:0.09975608"
       id="path570" />
    <path
       d="m 22.863373,20.012872 8.290728,0.24939 -1.80758,5.735975 h -7.731096 l 1.247948,-5.985365"
       style="fill:#f7f6ef;fill-opacity:1;fill-rule:nonzero;stroke:none;stroke-width:0.09975608"
       id="path572" />
    <path
       d="m 62.797727,20.698197 1.621036,5.79882 9.660378,0.07881 -1.875414,-6.112056 -9.406,0.234427"
       style="fill:#dcd7c6;fill-opacity:1;fill-rule:nonzero;stroke:none;stroke-width:0.09975608"
       id="path574" />
    <path
       d="M 24.253973,24.952793 H 72.972847 L 71.975286,21.96011 H 25.251533 Z m 50.812754,2.992683 H 22.178049 c -0.480825,0 -0.931722,-0.231435 -1.214031,-0.621481 -0.281313,-0.390046 -0.357127,-0.892817 -0.205498,-1.347705 l 1.995121,-5.985364 c 0.203502,-0.611505 0.776103,-1.023498 1.41953,-1.023498 h 48.880478 c 0.646419,0 1.215029,0.411993 1.424516,1.023498 l 1.915317,5.763905 c 0.109733,0.207494 0.169586,0.443915 0.169586,0.694303 0,0.825981 -0.668365,1.496342 -1.496341,1.496342"
       style="fill:#231f20;fill-opacity:1;fill-rule:nonzero;stroke:none;stroke-width:0.09975608"
       id="path576" />
    <path
       d="m 33.090367,61.073472 4.299487,25.517608 h -3.615161 l -4.946904,-26.020379 4.262578,0.502771"
       style="fill:#f7f6ef;fill-opacity:1;fill-rule:nonzero;stroke:none;stroke-width:0.09975608"
       id="path578" />
    <path
       d="M 35.213176,85.881814 H 62.405685 L 66.124591,61.940352 H 31.494269 Z m 28.559167,2.992683 H 33.845519 c -0.773108,0 -1.419528,-0.590562 -1.490355,-1.360676 L 28.364921,60.579679 c -0.03791,-0.418976 0.10275,-0.833961 0.386056,-1.1452 0.283308,-0.310241 0.684327,-0.48681 1.104299,-0.48681 h 37.907311 c 0.42097,0 0.82199,0.176569 1.105297,0.48681 0.283307,0.311239 0.423963,0.726224 0.386056,1.1452 l -3.990243,26.934142 c -0.07083,0.770114 -0.717246,1.360676 -1.491354,1.360676"
       style="fill:#231f20;fill-opacity:1;fill-rule:nonzero;stroke:none;stroke-width:0.09975608"
       id="path580" />
    <path
       d="m 70.755269,60.386152 c 0,0 -10.294827,0 -23.941459,0 -13.910985,0 -19.951216,0 -19.951216,0 L 22.872351,33.452011 c 0,0 12.62912,0 23.941459,0 11.548762,0 27.933697,0 27.933697,0 l -3.992238,26.934141"
       style="fill:#ebe8d5;fill-opacity:1;fill-rule:nonzero;stroke:none;stroke-width:0.09975608"
       id="path582" />
    <path
       d="m 69.905347,33.704393 -3.651072,26.480252 4.534911,-0.165596 5.00576,-26.519155 -5.767897,-0.142651 -0.121702,0.34715"
       style="fill:#dcd7c6;fill-opacity:1;fill-rule:nonzero;stroke:none;stroke-width:0.09975608"
       id="path584" />
    <path
       d="m 26.107441,34.08247 4.299486,25.516607 h -3.615159 l -4.946904,-26.019378 4.262577,0.502771"
       style="fill:#f7f6ef;fill-opacity:1;fill-rule:nonzero;stroke:none;stroke-width:0.09975608"
       id="path586" />
    <path
       d="M 28.23025,58.889811 H 69.388611 L 73.111508,34.948352 H 24.511344 Z m 42.525019,2.992682 H 26.862594 c -0.773109,0 -1.419528,-0.590556 -1.490356,-1.360673 L 21.381996,33.587679 c -0.03791,-0.418976 0.102748,-0.83396 0.386056,-1.144202 0.283307,-0.311239 0.684326,-0.487807 1.104299,-0.487807 h 51.875156 c 0.418975,0 0.818,0.176568 1.107292,0.487807 0.279318,0.310242 0.418976,0.725226 0.379074,1.144202 L 72.246622,60.52182 c -0.07083,0.770117 -0.717245,1.360673 -1.491353,1.360673"
       style="fill:#231f20;fill-opacity:1;fill-rule:nonzero;stroke:none;stroke-width:0.09975608"
       id="path588" />
    <path
       d="m 79.815116,29.966533 c 0,3.579249 -1.90534,3.485478 -5.476608,3.485478 H 23.284344 c -3.577253,0 -5.481596,0.09377 -5.481596,-3.485478 0,-3.577253 1.904343,-3.483481 5.481596,-3.483481 h 51.054164 c 3.571268,0 5.476608,-0.09377 5.476608,3.483481"
       style="fill:#ebe8d5;fill-opacity:1;fill-rule:nonzero;stroke:none;stroke-width:0.09975608"
       id="path590" />
    <path
       d="m 77.730214,26.705508 c 0,0 -7.695183,-2.307358 -6.323538,0.529704 l 0.0409,0.09377 H 19.055684 v 1.371646 h 52.852765 c 0.410995,2.025049 -0.07482,3.334847 -0.07482,3.334847 l 5.996338,1.095322 1.626024,-2.996673 -1.72578,-3.428616"
       style="fill:#dcd7c6;fill-opacity:1;fill-rule:nonzero;stroke:none;stroke-width:0.09975608"
       id="path592" />
    <path
       d="m 25.852066,27.578373 c 0,0 -1.371647,1.963199 0,4.800263 1.371645,2.837062 -6.328526,0.529704 -6.328526,0.529704 l -1.720792,-3.428616 1.627021,-2.996672 6.422297,1.095321"
       style="fill:#f7f6ef;fill-opacity:1;fill-rule:nonzero;stroke:none;stroke-width:0.09975608"
       id="path594" />
    <path
       d="m 23.284344,31.95567 h 51.572895 c 3.461536,0 3.461536,-0.187542 3.461536,-1.989137 0,-1.799599 0,-1.987141 -3.461536,-1.987141 H 22.76262 c -3.463532,0 -3.463532,0.187542 -3.463532,1.987141 0,1.445466 0.357127,1.636998 0.473842,1.698847 0.543671,0.29029 1.84449,0.29029 2.990688,0.29029 z m 51.572895,2.992682 H 22.763618 c -1.643981,0 -3.196185,0 -4.401239,-0.643427 -2.055973,-1.099312 -2.055973,-3.53735 -2.055973,-4.338392 0,-4.979823 3.430611,-4.979823 6.456214,-4.979823 h 52.094619 c 3.02261,0 6.454218,0 6.454218,4.979823 0,4.981819 -3.431608,4.981819 -6.454218,4.981819"
       style="fill:#231f20;fill-opacity:1;fill-rule:nonzero;stroke:none;stroke-width:0.09975608"
       id="path596" />
  </g>
</svg>
