<?xml version="1.0" encoding="utf-8"?>
<!-- Generator: Adobe Illustrator 16.0.0, SVG Export Plug-In . SVG Version: 6.00 Build 0)  -->
<!DOCTYPE svg PUBLIC "-//W3C//DTD SVG 1.1//EN" "http://www.w3.org/Graphics/SVG/1.1/DTD/svg11.dtd">
<svg version="1.1" id="Layer_1" xmlns="http://www.w3.org/2000/svg" xmlns:xlink="http://www.w3.org/1999/xlink" x="0px" y="0px"
	 width="100px" height="100px" viewBox="0 0 100 100" enable-background="new 0 0 100 100" xml:space="preserve">
<g>
	<g>
		<path fill="#CD4D27" d="M50.195,62.568c-6.625,0-12-5.375-12-12h-22c0,18.777,15.222,34,34,34c18.777,0,34-15.223,34-34h-22
			C62.195,57.193,56.82,62.568,50.195,62.568z"/>
	</g>
	<g>
		<path fill="#EF3B3B" d="M50.195,38.568c6.625,0,12,5.375,12,12h22c0-18.779-15.222-34-34-34c-18.777,0-34,15.221-34,34h22
			C38.195,43.943,43.57,38.568,50.195,38.568z"/>
	</g>
	<g opacity="0.05">
		<path fill="#FFFFFF" d="M50.195,66.027c-8.525,0-15.46-6.934-15.46-15.459s6.935-15.461,15.46-15.461s15.46,6.936,15.46,15.461
			S58.721,66.027,50.195,66.027z M50.195,38.543c-6.631,0-12.024,5.395-12.024,12.025s5.394,12.023,12.024,12.023
			S62.22,57.199,62.22,50.568S56.826,38.543,50.195,38.543z"/>
	</g>
	<g opacity="0.05">
		<path d="M50.195,83.068c-17.921,0-32.5-14.58-32.5-32.5c0-17.922,14.579-32.5,32.5-32.5s32.5,14.578,32.5,32.5
			C82.695,68.488,68.116,83.068,50.195,83.068z M50.195,20.814c-16.406,0-29.754,13.348-29.754,29.754s13.348,29.754,29.754,29.754
			s29.754-13.348,29.754-29.754S66.602,20.814,50.195,20.814z"/>
	</g>
	<g>
		<path d="M50.195,86.068c-19.575,0-35.5-15.926-35.5-35.5c0-19.576,15.925-35.5,35.5-35.5s35.5,15.924,35.5,35.5
			C85.695,70.143,69.771,86.068,50.195,86.068z M50.195,18.068c-17.921,0-32.5,14.578-32.5,32.5c0,17.92,14.579,32.5,32.5,32.5
			s32.5-14.58,32.5-32.5C82.695,32.646,68.116,18.068,50.195,18.068z M50.195,64.068c-7.444,0-13.5-6.057-13.5-13.5
			c0-7.445,6.056-13.5,13.5-13.5s13.5,6.055,13.5,13.5C63.695,58.012,57.64,64.068,50.195,64.068z M50.195,40.068
			c-5.79,0-10.5,4.709-10.5,10.5c0,5.789,4.71,10.5,10.5,10.5s10.5-4.711,10.5-10.5C60.695,44.777,55.985,40.068,50.195,40.068z"/>
	</g>
	<g>
		<path d="M38.305,53.068c-1.684,0-2.607-0.835-3.219-1.387c-0.515-0.466-0.702-0.613-1.207-0.613c-0.504,0-0.691,0.147-1.206,0.612
			c-0.611,0.553-1.535,1.388-3.219,1.388c-1.683,0-2.606-0.835-3.217-1.388c-0.515-0.465-0.702-0.612-1.206-0.612
			c-0.502,0-0.688,0.147-1.202,0.612c-0.61,0.553-1.533,1.388-3.216,1.388s-2.605-0.835-3.216-1.388
			c-0.514-0.465-0.7-0.612-1.202-0.612v-3c1.683,0,2.605,0.835,3.216,1.388c0.514,0.465,0.7,0.612,1.202,0.612
			s0.688-0.147,1.202-0.612c0.61-0.553,1.533-1.388,3.216-1.388c1.684,0,2.607,0.835,3.218,1.388
			c0.515,0.465,0.701,0.612,1.205,0.612c0.505,0,0.692-0.147,1.207-0.613c0.611-0.552,1.534-1.387,3.218-1.387
			s2.607,0.835,3.219,1.387c0.515,0.466,0.702,0.613,1.207,0.613V53.068z"/>
	</g>
	<g>
		<path d="M84.195,53.068c-1.684,0-2.607-0.835-3.219-1.387c-0.515-0.466-0.702-0.613-1.207-0.613c-0.504,0-0.691,0.147-1.206,0.612
			c-0.611,0.553-1.535,1.388-3.219,1.388c-1.683,0-2.606-0.835-3.217-1.388c-0.515-0.465-0.702-0.612-1.206-0.612
			c-0.502,0-0.688,0.147-1.202,0.612c-0.61,0.553-1.533,1.388-3.216,1.388s-2.605-0.835-3.216-1.388
			c-0.514-0.465-0.7-0.612-1.202-0.612v-3c1.683,0,2.605,0.835,3.216,1.388c0.514,0.465,0.7,0.612,1.202,0.612
			s0.688-0.147,1.202-0.612c0.61-0.553,1.533-1.388,3.216-1.388c1.684,0,2.607,0.835,3.218,1.388
			c0.515,0.465,0.701,0.612,1.205,0.612c0.505,0,0.692-0.147,1.207-0.613c0.611-0.552,1.534-1.387,3.218-1.387
			s2.607,0.835,3.219,1.387c0.515,0.466,0.702,0.613,1.207,0.613V53.068z"/>
	</g>
	<g>
		<g>
			<circle fill="#FAC0BC" cx="24.125" cy="44.422" r="1.708"/>
		</g>
		<g>
			<circle fill="#FAC0BC" cx="40.012" cy="33.568" r="1.708"/>
		</g>
		<g>
			<circle fill="#FAC0BC" cx="46.782" cy="24.764" r="1.708"/>
		</g>
		<g>
			<circle fill="#FAC0BC" cx="57.532" cy="33.568" r="1.708"/>
		</g>
		<g>
			<circle fill="#FAC0BC" cx="73.865" cy="37.902" r="1.708"/>
		</g>
		<g>
			<circle fill="#FAC0BC" cx="69.615" cy="43.986" r="1.121"/>
		</g>
		<g>
			<circle fill="#FAC0BC" cx="66.776" cy="29.57" r="1.121"/>
		</g>
		<g>
			<circle fill="#FAC0BC" cx="33.615" cy="29.57" r="1.121"/>
		</g>
		<g>
			<circle fill="#FAC0BC" cx="31.908" cy="41.467" r="1.121"/>
		</g>
	</g>
	<g>
		<g>
			<circle fill="#E95E3D" cx="75.066" cy="56.504" r="1.708"/>
		</g>
		<g>
			<circle fill="#E95E3D" cx="59.178" cy="67.357" r="1.708"/>
		</g>
		<g>
			<circle fill="#E95E3D" cx="52.409" cy="76.162" r="1.708"/>
		</g>
		<g>
			<circle fill="#E95E3D" cx="41.659" cy="67.357" r="1.708"/>
		</g>
		<g>
			<circle fill="#E95E3D" cx="25.326" cy="63.023" r="1.708"/>
		</g>
		<g>
			<circle fill="#E95E3D" cx="29.576" cy="56.939" r="1.121"/>
		</g>
		<g>
			<circle fill="#E95E3D" cx="32.415" cy="71.355" r="1.121"/>
		</g>
		<g>
			<circle fill="#E95E3D" cx="65.576" cy="71.355" r="1.121"/>
		</g>
		<g>
			<circle fill="#E95E3D" cx="67.283" cy="59.459" r="1.121"/>
		</g>
	</g>
</g>
</svg>
