<?xml version="1.0" encoding="utf-8"?>
<!-- Generator: Adobe Illustrator 16.0.0, SVG Export Plug-In . SVG Version: 6.00 Build 0)  -->
<!DOCTYPE svg PUBLIC "-//W3C//DTD SVG 1.1//EN" "http://www.w3.org/Graphics/SVG/1.1/DTD/svg11.dtd">
<svg version="1.1" id="Layer_1" xmlns="http://www.w3.org/2000/svg" xmlns:xlink="http://www.w3.org/1999/xlink" x="0px" y="0px"
	 width="100px" height="100px" viewBox="0 0 100 100" enable-background="new 0 0 100 100" xml:space="preserve">
<g>
	<g>
		
			<rect x="31.561" y="16.889" transform="matrix(0.9739 -0.2269 0.2269 0.9739 -7.6306 8.8996)" fill="#FFDE80" width="6.667" height="41.501"/>
	</g>
	<g>
		<polygon fill="#EEC151" points="30.229,17.418 35.979,41.73 39.563,41.137 33.604,16.657 		"/>
	</g>
	<g>
		<path d="M36.354,60.105c-0.682,0-1.298-0.468-1.459-1.16L25.48,18.527c-0.09-0.388-0.023-0.795,0.188-1.133
			c0.21-0.338,0.546-0.578,0.933-0.668l6.493-1.512c0.807-0.191,1.614,0.314,1.801,1.121l9.414,40.418
			c0.09,0.389,0.023,0.795-0.188,1.133c-0.21,0.338-0.546,0.578-0.933,0.669l-6.493,1.513
			C36.581,60.093,36.466,60.105,36.354,60.105z M28.742,19.307l8.733,37.497l3.571-0.831l-8.733-37.497L28.742,19.307z"/>
	</g>
	<g>
		
			<rect x="41.395" y="10.574" transform="matrix(0.996 -0.0889 0.0889 0.996 -2.6083 4.1015)" fill="#FFDE80" width="6.666" height="41.5"/>
	</g>
	<g>
		<polygon fill="#EEC151" points="42.848,10.66 45.354,37.293 48.608,37.293 46.479,10.66 		"/>
	</g>
	<g>
		<path d="M43.252,53.789c-0.768,0-1.422-0.587-1.492-1.367l-3.691-41.335c-0.074-0.825,0.536-1.554,1.361-1.627l6.64-0.593
			c0.394-0.033,0.79,0.088,1.095,0.343s0.497,0.621,0.532,1.018l3.691,41.336c0.035,0.396-0.089,0.791-0.344,1.096
			c-0.255,0.306-0.621,0.496-1.018,0.532l-6.64,0.593C43.342,53.787,43.297,53.789,43.252,53.789z M41.19,12.313l3.425,38.348
			l3.651-0.326l-3.424-38.348L41.19,12.313z"/>
	</g>
	<g>
		
			<rect x="56.658" y="22.862" transform="matrix(-0.8838 -0.468 0.468 -0.8838 92.599 110.2282)" fill="#FFDE80" width="6.665" height="41.501"/>
	</g>
	<g>
		<polygon fill="#EEC151" points="69.479,25.293 64.541,35.074 67.822,34.543 72.135,27.137 		"/>
	</g>
	<g>
		<path d="M53.229,65.012c-0.242,0-0.483-0.059-0.701-0.174l-5.891-3.119c-0.732-0.388-1.012-1.295-0.624-2.027l19.414-36.679
			c0.187-0.352,0.505-0.615,0.885-0.732c0.38-0.117,0.791-0.079,1.143,0.108l5.893,3.119c0.732,0.388,1.012,1.295,0.623,2.027
			L54.555,64.213c-0.187,0.352-0.505,0.615-0.885,0.732C53.525,64.99,53.377,65.012,53.229,65.012z M49.365,59.77l3.239,1.715
			l18.012-34.028l-3.24-1.715L49.365,59.77z"/>
	</g>
	<g>
		
			<rect x="51.848" y="16.89" transform="matrix(-0.9947 -0.1024 0.1024 -0.9947 106.2177 80.7332)" fill="#FFDE80" width="6.666" height="41.5"/>
	</g>
	<g>
		<polygon fill="#EEC151" points="57.166,17.168 55.182,36.793 58.104,36.355 61.104,17.98 		"/>
	</g>
	<g>
		<path d="M56.371,60.122c-0.052,0-0.104-0.003-0.156-0.008l-6.63-0.683c-0.396-0.041-0.759-0.238-1.01-0.547
			s-0.369-0.703-0.329-1.1l4.255-41.282c0.041-0.396,0.237-0.759,0.546-1.01s0.705-0.366,1.1-0.328l6.631,0.684
			c0.824,0.085,1.424,0.822,1.339,1.646l-4.255,41.281C57.781,59.548,57.131,60.122,56.371,60.122z M51.385,56.601l3.646,0.376
			l3.947-38.297l-3.646-0.376L51.385,56.601z"/>
	</g>
	<g>
		<ellipse cx="50.096" cy="89.041" rx="24.048" ry="2.375"/>
	</g>
	<g>
		<path fill="#EAE6D8" d="M69.096,88.518c0,0-5.319-3-19-3c-13.944,0-19,3-19,3l-6-56c0,0,13.66,5,25,5c11.576,0,25-5,25-5
			L69.096,88.518z"/>
	</g>
	<g>
		<path fill="#D1CEC7" d="M31.104,83.518c0,0,16.234-4.791,35-0.777c0.109,0.023-0.344,3.584-0.344,3.584s1.152,1.16,2.906,1.594
			l1.353-8.016c0,0-16.293-4.662-39.237,0.604L31.104,83.518z"/>
	</g>
	<g>
		<polygon fill="#F5F3EE" points="29.916,34.043 31.687,49.881 26.941,48.677 25.096,31.793 		"/>
	</g>
	<g>
		<polygon fill="#DCD6CA" points="70.687,33.918 69.187,49.105 73.241,48.27 74.624,33.168 		"/>
	</g>
	<g>
		<path d="M69.096,90.018c-0.252,0-0.502-0.063-0.729-0.189c-0.068-0.037-5.305-2.811-18.271-2.811
			c-13.209,0-18.196,2.768-18.245,2.796c-0.439,0.253-0.981,0.268-1.432,0.037s-0.761-0.669-0.815-1.173l-6-56
			c-0.055-0.515,0.16-1.022,0.568-1.341c0.409-0.319,0.95-0.405,1.439-0.227c0.134,0.049,13.549,4.909,24.484,4.909
			c11.177,0,24.345-4.856,24.477-4.906c0.486-0.181,1.032-0.098,1.443,0.221c0.41,0.319,0.627,0.828,0.572,1.344l-6,56
			c-0.055,0.502-0.357,0.943-0.806,1.174C69.566,89.963,69.331,90.018,69.096,90.018z M50.096,84.018
			c9.404,0,15.008,1.399,17.723,2.347l5.534-51.658c-4.367,1.432-14.267,4.312-23.257,4.312c-8.836,0-18.857-2.896-23.258-4.323
			l5.534,51.652C35.064,85.395,40.603,84.018,50.096,84.018z"/>
	</g>
	<g>
		<path fill="#EF3B3B" d="M74.296,80.512c0,0-10.52-3-24.2-3c-13.944,0-24.201,3-24.201,3l-3-33c0,0,15.86,5,27.201,5
			c11.576,0,27.2-5,27.2-5L74.296,80.512z"/>
	</g>
	<g>
		<polygon fill="#F05555" points="28.327,48.233 31.687,80.154 26.125,80.525 21.812,47.498 		"/>
	</g>
	<g>
		<polygon fill="#D33333" points="71.916,48.418 68.729,79.554 75.123,79.626 78.088,47.012 		"/>
	</g>
	<g>
		<path d="M25.895,82.012c-0.298,0-0.593-0.089-0.844-0.26c-0.371-0.253-0.609-0.658-0.649-1.104l-3-33
			c-0.045-0.5,0.162-0.989,0.553-1.304c0.391-0.315,0.915-0.412,1.392-0.263c0.157,0.049,15.776,4.931,26.75,4.931
			c11.213,0,26.589-4.879,26.743-4.929c0.478-0.153,1.003-0.057,1.396,0.258s0.602,0.805,0.555,1.306l-3,33
			c-0.039,0.444-0.276,0.849-0.645,1.101c-0.368,0.253-0.83,0.328-1.26,0.206c-0.104-0.029-10.498-2.942-23.789-2.942
			c-13.572,0-23.679,2.91-23.78,2.939C26.178,81.992,26.036,82.012,25.895,82.012z M50.096,76.012
			c10.635,0,19.297,1.759,22.865,2.61l2.64-29.032c-4.728,1.374-16.263,4.421-25.505,4.421c-9.078,0-20.746-3.062-25.506-4.429
			l2.639,29.031C30.764,77.758,39.299,76.012,50.096,76.012z"/>
	</g>
	<g>
		<circle fill="#FFD252" cx="50.096" cy="65.012" r="12.488"/>
	</g>
	<g>
		<path fill="#F8B51C" d="M58.926,56.182L58.926,56.182L41.264,73.843l0,0.001c4.876,4.876,12.784,4.875,17.661-0.002
			S63.803,61.059,58.926,56.182z"/>
	</g>
	<g>
		<path d="M50.096,79c-7.713,0-13.989-6.275-13.989-13.988c0-7.714,6.275-13.988,13.989-13.988c7.712,0,13.988,6.274,13.988,13.988
			C64.084,72.725,57.809,79,50.096,79z M50.096,54.023c-6.059,0-10.989,4.929-10.989,10.988C39.107,71.07,44.037,76,50.096,76
			c6.058,0,10.988-4.93,10.988-10.988C61.084,58.952,56.154,54.023,50.096,54.023z"/>
	</g>
</g>
</svg>
