<?xml version="1.0" encoding="UTF-8" standalone="no"?>
<!-- Created with Inkscape (http://www.inkscape.org/) -->

<svg
   xmlns:dc="http://purl.org/dc/elements/1.1/"
   xmlns:cc="http://creativecommons.org/ns#"
   xmlns:rdf="http://www.w3.org/1999/02/22-rdf-syntax-ns#"
   xmlns:svg="http://www.w3.org/2000/svg"
   xmlns="http://www.w3.org/2000/svg"
   xmlns:sodipodi="http://sodipodi.sourceforge.net/DTD/sodipodi-0.dtd"
   xmlns:inkscape="http://www.inkscape.org/namespaces/inkscape"
   width="100px"
   height="100px"
   viewBox="0 0 100 100"
   version="1.1"
   id="SVGRoot"
   inkscape:version="0.92.2 (unknown)"
   sodipodi:docname="gyro.svg">
  <sodipodi:namedview
     id="base"
     pagecolor="#ffffff"
     bordercolor="#666666"
     borderopacity="1.0"
     inkscape:pageopacity="0.0"
     inkscape:pageshadow="2"
     inkscape:zoom="2.56"
     inkscape:cx="50"
     inkscape:cy="50"
     inkscape:document-units="px"
     inkscape:current-layer="layer1"
     showgrid="false"
     inkscape:window-width="1557"
     inkscape:window-height="876"
     inkscape:window-x="43"
     inkscape:window-y="24"
     inkscape:window-maximized="1"
     inkscape:grid-bbox="true" />
  <defs
     id="defs5560" />
  <metadata
     id="metadata5563">
    <rdf:RDF>
      <cc:Work
         rdf:about="">
        <dc:format>image/svg+xml</dc:format>
        <dc:type
           rdf:resource="http://purl.org/dc/dcmitype/StillImage" />
        <dc:title></dc:title>
      </cc:Work>
    </rdf:RDF>
  </metadata>
  <g
     id="layer1"
     inkscape:groupmode="layer"
     inkscape:label="Layer 1">
    <path
       inkscape:connector-curvature="0"
       id="path292"
       style="fill:#231f20;fill-opacity:1;fill-rule:nonzero;stroke:none;stroke-width:0.08935713"
       d="m 70.346869,85.839283 c 0,2.612804 -9.328884,4.729677 -20.835402,4.729677 -11.506518,0 -20.834508,-2.116873 -20.834508,-4.729677 0,-2.612805 9.32799,-4.73146 20.834508,-4.73146 11.506518,0 20.835402,2.118655 20.835402,4.73146" />
    <path
       inkscape:connector-curvature="0"
       id="path294"
       style="fill:#fbdd64;fill-opacity:1;fill-rule:nonzero;stroke:none;stroke-width:0.08935713"
       d="m 65.522477,82.264999 c 0,1.973898 -1.600386,3.574284 -3.574285,3.574284 H 37.374981 c -1.973898,0 -3.574284,-1.600386 -3.574284,-3.574284 V 15.714493 c 0,-1.9739 1.600386,-3.574286 3.574284,-3.574286 h 24.573211 c 1.973899,0 3.574285,1.600386 3.574285,3.574286 v 66.550506" />
    <path
       inkscape:connector-curvature="0"
       id="path296"
       style="fill:#fbe586;fill-opacity:1;fill-rule:nonzero;stroke:none;stroke-width:0.08935713"
       d="m 35.158031,85.066346 h 2.095353 v -6.012755 h -2.095353 z" />
    <path
       inkscape:connector-curvature="0"
       id="path298"
       style="fill:#e6bb45;fill-opacity:1;fill-rule:nonzero;stroke:none;stroke-width:0.08935713"
       d="m 66.164062,21.343098 -3.108735,-1.265297 v 19.304714 h 3.108735 V 21.343098" />
    <path
       inkscape:connector-curvature="0"
       id="path300"
       style="fill:#feeeb5;fill-opacity:1;fill-rule:nonzero;stroke:none;stroke-width:0.08935713"
       d="m 36.016753,20.505821 -3.109627,1.71387 v 17.162824 h 3.109627 V 20.505821" />
    <path
       inkscape:connector-curvature="0"
       id="path302"
       style="fill:#e6bb45;fill-opacity:1;fill-rule:nonzero;stroke:none;stroke-width:0.08935713"
       d="m 36.471581,12.140207 -2.680714,4.399946 2.680714,5.026338 12.5654,4.635848 9.382498,-2.290223 6.813481,-5.138036 -0.622819,-5.440061 -10.155438,-1.428821 -17.983122,0.235009" />
    <path
       inkscape:connector-curvature="0"
       id="path304"
       style="fill:#e6bb45;fill-opacity:1;fill-rule:nonzero;stroke:none;stroke-width:0.08935713"
       d="m 64.954166,84.359528 -2.551145,0.706818 V 80.877281 H 37.253457 v -1.82377 h 27.700709 v 5.306017" />
    <path
       inkscape:connector-curvature="0"
       id="path306"
       style="fill:#231f20;fill-opacity:1;fill-rule:nonzero;stroke:none;stroke-width:0.08935713"
       d="m 37.374981,13.480564 c -1.232234,0 -2.233927,1.001694 -2.233927,2.233929 v 66.550506 c 0,1.232231 1.001693,2.233927 2.233927,2.233927 h 24.573211 c 1.232236,0 2.233928,-1.001696 2.233928,-2.233927 V 15.714493 c 0,-1.232235 -1.001692,-2.233929 -2.233928,-2.233929 z M 61.948192,87.17964 H 37.374981 c -2.709307,0 -4.914641,-2.204439 -4.914641,-4.914641 V 15.714493 c 0,-2.710202 2.205334,-4.914643 4.914641,-4.914643 h 24.573211 c 2.710202,0 4.914642,2.204441 4.914642,4.914643 v 66.550506 c 0,2.710202 -2.20444,4.914641 -4.914642,4.914641" />
    <path
       inkscape:connector-curvature="0"
       id="path308"
       style="fill:#e6bb45;fill-opacity:1;fill-rule:nonzero;stroke:none;stroke-width:0.08935713"
       d="m 59.983229,36.266632 c 0,0.480742 0.09829,0.867658 -0.695198,0.867658 H 40.027102 c -0.793492,0 -0.696092,-0.386916 -0.696092,-0.867658 0,-0.479848 -0.0974,-0.866764 0.696092,-0.866764 h 19.260929 c 0.793491,0 0.695198,0.386916 0.695198,0.866764" />
    <path
       inkscape:connector-curvature="0"
       id="path310"
       style="fill:#e6bb45;fill-opacity:1;fill-rule:nonzero;stroke:none;stroke-width:0.08935713"
       d="m 59.983229,32.64052 c 0,0.479848 0.09829,0.867658 -0.695198,0.867658 H 40.027102 c -0.793492,0 -0.696092,-0.38781 -0.696092,-0.867658 0,-0.479849 -0.0974,-0.867658 0.696092,-0.867658 h 19.260929 c 0.793491,0 0.695198,0.387809 0.695198,0.867658" />
    <path
       inkscape:connector-curvature="0"
       id="path312"
       style="fill:#e6bb45;fill-opacity:1;fill-rule:nonzero;stroke:none;stroke-width:0.08935713"
       d="m 59.983229,29.050151 c 0,0.479847 0.09829,0.867658 -0.695198,0.867658 H 40.027102 c -0.793492,0 -0.696092,-0.387811 -0.696092,-0.867658 0,-0.479849 -0.0974,-0.866765 0.696092,-0.866765 h 19.260929 c 0.793491,0 0.695198,0.386916 0.695198,0.866765" />
    <path
       inkscape:connector-curvature="0"
       id="path314"
       style="fill:#ee2937;fill-opacity:1;fill-rule:nonzero;stroke:none;stroke-width:0.08935713"
       d="M 32.907126,77.713154 H 66.416049 V 45.119063 H 32.907126 Z" />
    <path
       inkscape:connector-curvature="0"
       id="path316"
       style="fill:#f03b4d;fill-opacity:1;fill-rule:nonzero;stroke:none;stroke-width:0.08935713"
       d="m 33.800697,76.727536 h 2.354355 V 45.750998 h -2.354355 z" />
    <path
       inkscape:connector-curvature="0"
       id="path318"
       style="fill:#d52630;fill-opacity:1;fill-rule:nonzero;stroke:none;stroke-width:0.08935713"
       d="M 63.110728,76.727536 H 65.27066 V 45.750998 h -2.159932 z" />
    <path
       inkscape:connector-curvature="0"
       id="path320"
       style="fill:#231f20;fill-opacity:1;fill-rule:nonzero;stroke:none;stroke-width:0.08935713"
       d="M 34.247483,76.372797 H 65.075692 V 46.4596 H 34.247483 Z m 33.508923,2.680714 H 31.566769 V 43.778886 h 36.189637 v 35.274625" />
    <path
       inkscape:connector-curvature="0"
       id="path322"
       style="fill:#231f20;fill-opacity:1;fill-rule:nonzero;stroke:none;stroke-width:0.08935713"
       d="M 49.582953,27.991269 C 48.883286,27.951058 32.46034,26.905579 32.46034,15.714493 h 2.680714 c 0,8.684618 14.44458,9.5907 14.592019,9.599637 l -0.15012,2.677139" />
    <path
       inkscape:connector-curvature="0"
       id="path324"
       style="fill:#231f20;fill-opacity:1;fill-rule:nonzero;stroke:none;stroke-width:0.08935713"
       d="m 33.993708,31.243868 -0.385129,-2.65212 c 11.369801,0 30.573541,-8.261066 30.573541,-12.784324 h 2.680714 c 0,8.45229 -25.42121,15.436444 -32.869126,15.436444" />
    <path
       inkscape:connector-curvature="0"
       id="path326"
       style="fill:#80cc28;fill-opacity:1;fill-rule:nonzero;stroke:none;stroke-width:0.08935713"
       d="m 49.012855,8.7410623 c 1.083901,-0.094719 2.090063,1.2527868 3.013122,1.3314217 1.090157,0.09204 2.318817,-1.0258203 3.206133,-0.7452387 1.037437,0.3279404 1.39844,1.9828337 2.18657,2.4885957 0.917698,0.58797 2.518084,0.243051 3.145371,0.944505 0.752386,0.840851 0.24305,2.485022 0.658561,3.281194 0.836383,1.589663 2.553827,1.130368 2.323286,2.644077 -0.630862,1.212577 -2.860322,1.494945 -4.549172,2.28933 -1.309081,0.614777 -2.436768,2.375112 -4.096131,2.743263 -1.507454,0.330622 -3.303533,-0.771151 -4.899451,-0.643371 -1.617364,0.130461 -3.209707,1.503881 -4.72878,1.427034 -1.750505,-0.08668 -3.169496,-1.638811 -4.503599,-2.0016 -2.109721,-0.569205 -4.34365,-0.804215 -4.449091,-2.045385 -0.04557,-1.511028 1.319804,-1.062456 1.894371,-2.741476 0.284155,-0.832809 -0.471806,-2.368858 0.142078,-3.299065 0.507549,-0.769366 2.134742,-0.646946 2.948785,-1.353761 0.694305,-0.604054 0.793492,-2.284862 1.759442,-2.761136 0.819405,-0.4047874 2.196399,0.511124 3.238302,0.24752 0.888211,-0.221606 1.643278,-1.7156568 2.710203,-1.8059077" />
    <path
       inkscape:connector-curvature="0"
       id="path328"
       style="fill:#231f20;fill-opacity:1;fill-rule:nonzero;stroke:none;stroke-width:0.08935713"
       d="m 37.653776,20.325321 8.71e-4,0.0143 c 0.05273,0.621031 1.432395,1.174152 3.012229,1.209895 0.964163,0.02233 1.821992,0.456615 2.652119,0.877487 0.715751,0.36279 1.390397,0.705028 2.020365,0.736302 l 0.05719,0.0018 c 0.481635,0 1.124112,-0.285943 1.80412,-0.58797 0.798852,-0.355641 1.705828,-0.758642 2.69233,-0.83817 0.955228,-0.07685 1.880074,0.161736 2.753987,0.390491 0.764003,0.20016 1.50388,0.378874 1.96675,0.279687 0.761323,-0.168884 1.477967,-0.671966 2.235715,-1.205427 0.538824,-0.377981 1.094626,-0.769364 1.699573,-1.054414 0.571886,-0.268071 1.206322,-0.460189 1.819312,-0.646052 0.586182,-0.17782 1.677233,-0.507549 1.857734,-0.768471 -0.02859,-0.121526 -0.05273,-0.180502 -0.05273,-0.180502 0.01072,0.03217 -0.117058,-0.04021 -0.207308,-0.09115 -0.451252,-0.252878 -1.208107,-0.674643 -1.772844,-1.754077 -0.302026,-0.570993 -0.354748,-1.222406 -0.406574,-1.852374 -0.02681,-0.340451 -0.07596,-0.951653 -0.193012,-1.160749 -0.156374,-0.05808 -0.527207,-0.104547 -0.780088,-0.135823 -0.638903,-0.07864 -1.434181,-0.176927 -2.118657,-0.61567 -0.602267,-0.38781 -0.969525,-0.996332 -1.293892,-1.533368 -0.15012,-0.248414 -0.390491,-0.64784 -0.543291,-0.780088 -0.167098,0.03664 -0.484315,0.170672 -0.70324,0.263603 -0.646052,0.272539 -1.405588,0.586183 -2.24197,0.513804 -0.761323,-0.06523 -1.379675,-0.481636 -1.925646,-0.85068 -0.26271,-0.176927 -0.703242,-0.4727 -0.865871,-0.481635 -0.136717,0.03753 -0.506655,0.394065 -0.728261,0.606734 -0.477167,0.458402 -1.018671,0.978461 -1.765697,1.165218 -0.721112,0.182288 -1.611109,0.01072 -2.291117,-0.161737 -0.253774,-0.06434 -0.537929,-0.136716 -0.711282,-0.149225 -0.115272,0.144757 -0.287731,0.56563 -0.394065,0.826552 -0.23677,0.579908 -0.504841,1.237577 -1.046345,1.708488 -0.614778,0.533463 -1.38861,0.740771 -2.011429,0.906976 -0.228754,0.06166 -0.559376,0.149226 -0.713964,0.223392 -0.0411,0.201053 0.02859,0.708602 0.06791,0.992758 0.0831,0.608522 0.178714,1.298359 -0.04468,1.951559 -0.41551,1.217045 -1.192024,1.746039 -1.656682,2.062363 z m 7.742795,5.520483 -0.192118,-0.0053 c -1.198278,-0.05898 -2.207121,-0.570992 -3.097118,-1.022245 -0.563843,-0.28505 -1.145558,-0.580822 -1.501199,-0.588864 -3.232048,-0.07327 -5.438275,-1.510135 -5.621457,-3.660069 -0.136717,-1.574472 0.818511,-2.225885 1.33142,-2.575272 0.334197,-0.227861 0.502188,-0.342238 0.629969,-0.714857 0.01161,-0.09025 -0.0411,-0.468232 -0.07506,-0.717538 -0.112589,-0.81315 -0.266283,-1.927433 0.366365,-2.885342 0.550439,-0.834595 1.489584,-1.085689 2.243758,-1.286742 0.336876,-0.09025 0.797065,-0.213564 0.944504,-0.341345 0.07327,-0.08399 0.223394,-0.453041 0.323473,-0.697879 0.302921,-0.741664 0.718431,-1.7576539 1.722805,-2.2526926 0.725581,-0.360109 1.700467,-0.2189252 2.521659,-0.010723 0.326154,0.083102 0.663923,0.1679917 0.889104,0.1679917 l 0.09025,-0.00715 c 0.08936,-0.043783 0.373513,-0.3172183 0.562056,-0.4986128 0.551334,-0.5289947 1.305508,-1.2536807 2.36439,-1.3439317 l 0.222499,-0.00984 c 0.968631,0 1.741571,0.5209519 2.361709,0.9400373 0.222499,0.1483326 0.555801,0.3735126 0.684475,0.4056812 0.201054,-0.00356 0.613884,-0.1778206 0.945399,-0.3172176 0.536143,-0.226074 1.144665,-0.4825285 1.807695,-0.4825285 0.248413,0 0.488782,0.036639 0.71575,0.1081219 1.071392,0.3386633 1.643278,1.2858493 2.059682,1.9774731 0.140291,0.232328 0.35296,0.584395 0.457508,0.669284 0.159056,0.100975 0.619246,0.158162 0.989184,0.203735 0.780088,0.0974 1.750506,0.217138 2.420685,0.967737 0.737196,0.823873 0.82566,1.9042 0.895358,2.772753 0.02233,0.279687 0.05719,0.70324 0.110802,0.83102 0.193012,0.365472 0.374408,0.467338 0.704135,0.651414 0.562056,0.314537 1.500305,0.839063 1.609321,2.474298 0.144759,2.295586 -2.192823,3.003293 -3.738701,3.471525 -0.545079,0.165312 -1.06067,0.321686 -1.455628,0.507549 -0.393171,0.184969 -0.832808,0.493251 -1.297465,0.820298 -0.897146,0.630861 -1.91403,1.344826 -3.200773,1.630768 -1.027607,0.224286 -2.191037,-0.03396 -3.224898,-0.304708 -0.691625,-0.182289 -1.32338,-0.353854 -1.858628,-0.311856 -0.528995,0.04289 -1.156282,0.320791 -1.818419,0.61567 -0.86319,0.384236 -1.84165,0.819406 -2.89249,0.819406" />
    <path
       inkscape:connector-curvature="0"
       id="path330"
       style="fill:#bdbcbc;fill-opacity:1;fill-rule:nonzero;stroke:none;stroke-width:0.08935713"
       d="m 33.800697,45.119243 h 31.72178 V 40.19378 h -31.72178 z" />
    <path
       inkscape:connector-curvature="0"
       id="path332"
       style="fill:#d3d2d2;fill-opacity:1;fill-rule:nonzero;stroke:none;stroke-width:0.08935713"
       d="m 35.074929,44.268563 h 2.03846 v -3.266771 h -2.03846 z" />
    <path
       inkscape:connector-curvature="0"
       id="path334"
       style="fill:#a7a5a6;fill-opacity:1;fill-rule:nonzero;stroke:none;stroke-width:0.08935713"
       d="m 62.412849,44.268563 h 2.038112 v -3.266771 h -2.038112 z" />
    <path
       inkscape:connector-curvature="0"
       id="path336"
       style="fill:#231f20;fill-opacity:1;fill-rule:nonzero;stroke:none;stroke-width:0.08935713"
       d="M 35.141054,43.778886 H 64.18212 V 41.534235 H 35.141054 Z M 66.862834,46.4596 H 32.46034 V 38.853521 H 66.862834 V 46.4596" />
    <path
       inkscape:connector-curvature="0"
       id="path338"
       style="fill:#fbd037;fill-opacity:1;fill-rule:nonzero;stroke:none;stroke-width:0.08935713"
       d="m 59.590952,61.414407 c 0,5.483849 -4.446412,9.930262 -9.929365,9.930262 -5.48206,0 -9.928471,-4.446413 -9.928471,-9.930262 0,-5.482058 4.446411,-9.926682 9.928471,-9.926682 5.482953,0 9.929365,4.444624 9.929365,9.926682" />
    <path
       inkscape:connector-curvature="0"
       id="path340"
       style="fill:#f6af0f;fill-opacity:1;fill-rule:nonzero;stroke:none;stroke-width:0.08935713"
       d="m 56.682377,54.395407 v 0 l -14.04158,14.041579 c 3.877207,3.876312 10.164374,3.876312 14.04158,0 3.877205,-3.878994 3.877205,-10.164374 0,-14.041579" />
    <path
       inkscape:connector-curvature="0"
       id="path342"
       style="fill:#231f20;fill-opacity:1;fill-rule:nonzero;stroke:none;stroke-width:0.08935713"
       d="m 49.661587,52.679749 c -4.816349,0 -8.735553,3.917416 -8.735553,8.734658 0,4.817243 3.919204,8.738236 8.735553,8.738236 4.817243,0 8.736446,-3.920993 8.736446,-8.738236 0,-4.817242 -3.919203,-8.734658 -8.736446,-8.734658 z m 0,19.856939 c -6.131686,0 -11.120495,-4.989699 -11.120495,-11.122281 0,-6.130791 4.988809,-11.120493 11.120495,-11.120493 6.13258,0 11.121388,4.989702 11.121388,11.120493 0,6.132582 -4.988808,11.122281 -11.121388,11.122281" />
    <path
       inkscape:connector-curvature="0"
       id="path344"
       style="fill:#ee2937;fill-opacity:1;fill-rule:nonzero;stroke:none;stroke-width:0.08935713"
       d="m 51.48626,22.300112 c 0,1.9739 -1.755867,3.574286 -3.922778,3.574286 -2.166911,0 -4.56615,-0.440531 -4.56615,-2.41443 0,-1.973898 1.759443,-4.73414 4.56615,-4.73414 2.166911,0 3.922778,1.600386 3.922778,3.574284" />
    <path
       inkscape:connector-curvature="0"
       id="path346"
       style="fill:#231f20;fill-opacity:1;fill-rule:nonzero;stroke:none;stroke-width:0.08935713"
       d="m 47.563482,20.066185 c -1.93905,0 -3.225793,2.042704 -3.225793,3.393783 0,0.996333 2.468938,1.074074 3.225793,1.074074 1.424352,0 2.582421,-1.002588 2.582421,-2.23393 0,-1.232234 -1.158069,-2.233927 -2.582421,-2.233927 z m 0,7.14857 c -5.138928,0 -5.906506,-2.352773 -5.906506,-3.754787 0,-2.536848 2.247331,-6.074497 5.906506,-6.074497 2.902319,0 5.263135,2.204441 5.263135,4.914641 0,2.709309 -2.360816,4.914643 -5.263135,4.914643" />
    <path
       inkscape:connector-curvature="0"
       id="path348"
       style="fill:#ee2937;fill-opacity:1;fill-rule:nonzero;stroke:none;stroke-width:0.08935713"
       d="m 59.165611,20.507609 c 0,1.661148 -1.47886,3.008655 -3.303533,3.008655 -1.824673,0 -3.845037,-0.36994 -3.845037,-2.031981 0,-1.661149 1.481541,-3.987116 3.845037,-3.987116 1.824673,0 3.303533,1.346612 3.303533,3.010442" />
    <path
       inkscape:connector-curvature="0"
       id="path350"
       style="fill:#231f20;fill-opacity:1;fill-rule:nonzero;stroke:none;stroke-width:0.08935713"
       d="m 55.862078,18.837524 c -1.620939,0 -2.50468,1.748719 -2.50468,2.646759 0,0.407467 1.029394,0.691624 2.50468,0.691624 1.083008,0 1.963176,-0.748813 1.963176,-1.668298 0,-0.921272 -0.880168,-1.670085 -1.963176,-1.670085 z m 0,6.019097 c -4.511641,0 -5.185394,-2.112403 -5.185394,-3.372338 0,-2.519872 2.12938,-5.327473 5.185394,-5.327473 2.560976,0 4.64389,1.95156 4.64389,4.350799 0,2.397451 -2.082914,4.349012 -4.64389,4.349012" />
  </g>
</svg>
