<?xml version="1.0" encoding="utf-8"?>
<!-- Generator: Adobe Illustrator 16.0.0, SVG Export Plug-In . SVG Version: 6.00 Build 0)  -->
<!DOCTYPE svg PUBLIC "-//W3C//DTD SVG 1.1//EN" "http://www.w3.org/Graphics/SVG/1.1/DTD/svg11.dtd">
<svg version="1.1" id="Layer_1" xmlns="http://www.w3.org/2000/svg" xmlns:xlink="http://www.w3.org/1999/xlink" x="0px" y="0px"
	 width="100px" height="100px" viewBox="0 0 100 100" enable-background="new 0 0 100 100" xml:space="preserve">
<g>
	<g>
		<ellipse cx="49.667" cy="60.534" rx="42.285" ry="6.419"/>
	</g>
	<g>
		<g>
			<path fill="#CD4D27" d="M91.951,51.824c0,3.587-2.906,5.494-6.492,5.494H14.281c-3.586,0-6.494-1.907-6.494-5.494l0,0
				c0-3.586,2.908-5.493,6.494-5.493h71.178C89.045,46.331,91.951,48.238,91.951,51.824L91.951,51.824z"/>
		</g>
	</g>
	<g>
		<g>
			<path fill="#BB3326" d="M9.617,46.575v1.322l0.001,1c0.056,0,70.11,0.001,70.165,0.002c2.121,0.039,3.813,0.836,3.813,2.977
				c0,2.195-1.781,3.977-3.977,3.977h-0.002v1.223h10.959v-10.5H9.617z"/>
		</g>
	</g>
	<g>
		<g>
			<path fill="#DD5839" d="M18.123,46.575v1.322h-0.001c-2.196,0-3.978,1.781-3.978,3.979c0,2.195,1.781,3.977,3.978,3.977h0.001
				v1.223L8.91,55.818l-0.167-7.875L18.123,46.575z"/>
		</g>
	</g>
	<g>
		<g>
			<path d="M85.459,58.818H14.281c-4.781,0-7.994-2.811-7.994-6.994c0-4.183,3.213-6.993,7.994-6.993h71.178
				c4.781,0,7.992,2.811,7.992,6.993C93.451,56.008,90.24,58.818,85.459,58.818z M14.281,47.831c-2.414,0-4.994,1.049-4.994,3.993
				s2.58,3.994,4.994,3.994h71.178c2.414,0,4.992-1.05,4.992-3.994s-2.578-3.993-4.992-3.993H14.281z"/>
		</g>
	</g>
	<g>
		<path fill="#FFD85C" d="M14.916,54.981c0-9.864,3-20.553,35.25-20.553s35.25,10.188,35.25,20.553l0,0
			c0,4.171-3.381,5.553-7.553,5.553H22.469C18.297,60.534,14.916,59.152,14.916,54.981L14.916,54.981z"/>
	</g>
	<g>
		<path fill="#EABF5E" d="M67.59,37.341c0,0,12.979,2.484,12.104,16.774c-0.139,2.269-2.994,3.117-5.75,3.137
			C60.336,57.35,19.982,57.5,19.94,57.562c-0.45,0.665-0.963,1.341-1.541,2.023l63.405,0.523l3.322-3.636l0.172-5.979l-4.539-9.99
			L69.443,36.2L67.59,37.341z"/>
	</g>
	<g>
		<path fill="#FEE59B" d="M36.125,34.525c0,0-19.739,8.262-15.182,25.912l-5.914-1.415l-0.779-8.744l5.277-9.722l9.007-5.03
			L36.125,34.525z"/>
	</g>
	<g>
		<path d="M77.863,62.034H22.469c-5.752,0-9.053-2.57-9.053-7.053c0-11.454,4.453-22.053,36.75-22.053
			c30.5,0,36.75,8.815,36.75,22.053C86.916,59.464,83.617,62.034,77.863,62.034z M50.166,35.929c-31.142,0-33.75,9.835-33.75,19.053
			c0,1.108,0,4.053,6.053,4.053h55.395c6.053,0,6.053-2.944,6.053-4.053C83.916,45.341,81.311,35.929,50.166,35.929z"/>
	</g>
	<g>
		<ellipse fill="#EABF5E" cx="33.015" cy="44.28" rx="1.239" ry="1.188"/>
	</g>
	<g>
		<circle fill="#EABF5E" cx="45.566" cy="47.94" r="1.246"/>
	</g>
	<g>
		<ellipse fill="#EABF5E" cx="61.408" cy="43.354" rx="1.057" ry="1.042"/>
	</g>
	<g>
		<ellipse fill="#EABF5E" cx="31.937" cy="53.44" rx="1.079" ry="1.125"/>
	</g>
	<g>
		<circle fill="#EABF5E" cx="58.727" cy="53.44" r="0.994"/>
	</g>
	<g>
		<circle fill="#EABF5E" cx="73.528" cy="50.44" r="0.942"/>
	</g>
</g>
</svg>
