<?xml version="1.0" encoding="UTF-8" standalone="no"?>
<svg
   xmlns:dc="http://purl.org/dc/elements/1.1/"
   xmlns:cc="http://creativecommons.org/ns#"
   xmlns:rdf="http://www.w3.org/1999/02/22-rdf-syntax-ns#"
   xmlns:svg="http://www.w3.org/2000/svg"
   xmlns="http://www.w3.org/2000/svg"
   id="SVGRoot"
   version="1.1"
   viewBox="0 0 100 100"
   height="100px"
   width="100px">
  <defs
     id="defs5560" />
  <metadata
     id="metadata5563">
    <rdf:RDF>
      <cc:Work
         rdf:about="">
        <dc:format>image/svg+xml</dc:format>
        <dc:type
           rdf:resource="http://purl.org/dc/dcmitype/StillImage" />
        <dc:title></dc:title>
      </cc:Work>
    </rdf:RDF>
  </metadata>
  <g
     id="layer1">
    <path
       d="m 54.054746,89.501645 c 0,2.03918 -1.653118,3.69225 -3.692245,3.69225 -2.039127,0 -3.692245,-1.65307 -3.692245,-3.69225 V 57.417353 c 0,-2.039139 1.653118,-3.692245 3.692245,-3.692245 2.039127,0 3.692245,1.653106 3.692245,3.692245 v 32.084292"
       style="fill:#fbd73f;fill-opacity:1;fill-rule:nonzero;stroke:none;stroke-width:0.10185491"
       id="path1004-3" />
    <path
       d="m 50.362501,92.280185 h 2.967318 v -19.26762 h -2.967318 z"
       style="fill:#f6af0f;fill-opacity:1;fill-rule:nonzero;stroke:none;stroke-width:0.10185491"
       id="path1006-6" />
    <path
       d="m 50.362501,55.252927 c -1.193742,0 -2.164418,0.970683 -2.164418,2.164426 v 32.084292 c 0,1.19375 0.970676,2.16445 2.164418,2.16445 1.193743,0 2.164418,-0.9707 2.164418,-2.16445 V 57.417353 c 0,-1.193743 -0.970675,-2.164426 -2.164418,-2.164426 z m 0,39.468778 c -2.878424,0 -5.220064,-2.34165 -5.220064,-5.22006 V 57.417353 c 0,-2.878424 2.34164,-5.220064 5.220064,-5.220064 2.878424,0 5.220064,2.34164 5.220064,5.220064 v 32.084292 c 0,2.87841 -2.34164,5.22006 -5.220064,5.22006"
       style="fill:#231f20;fill-opacity:1;fill-rule:nonzero;stroke:none;stroke-width:0.10185491"
       id="path1008-7" />
    <path
       d="m 72.940682,37.618791 c 0,-13.595589 -8.984624,-24.61629 -22.578181,-24.61629 -13.594579,0 -22.578181,11.020701 -22.578181,24.61629 0,0.476687 0,1.680606 0,1.832376 v 32.174941 c 0,1.012437 0.819932,1.833382 1.833393,1.833382 H 71.10729 c 1.012442,0 1.833392,-0.820945 1.833392,-1.833382 V 39.451167 c 0,-0.15177 0,-1.355689 0,-1.832376"
       style="fill:#ee2937;fill-opacity:1;fill-rule:nonzero;stroke:none;stroke-width:0.10185491"
       id="path1010-5" />
    <path
       d="M 72.940682,73.45949 H 68.309336 V 25.029531 l 4.631346,3.570017 V 73.45949"
       style="fill:#d52630;fill-opacity:1;fill-rule:nonzero;stroke:none;stroke-width:0.10185491"
       id="path1012-3" />
    <path
       d="m 27.78432,73.45949 h 4.631347 V 25.029531 L 27.78432,28.599548 V 73.45949"
       style="fill:#f03b4d;fill-opacity:1;fill-rule:nonzero;stroke:none;stroke-width:0.10185491"
       id="path1014-5" />
    <path
       d="m 50.362501,14.530323 c -12.19815,0 -21.05036,9.70983 -21.05036,23.088468 v 34.007317 c 0,0.168065 0.137513,0.305558 0.305572,0.305558 H 71.10729 c 0.168059,0 0.305572,-0.137493 0.305572,-0.305558 V 37.618791 c 0,-13.378638 -8.853243,-23.088468 -21.050361,-23.088468 z M 71.10729,74.987328 H 29.617713 c -1.853762,0 -3.361212,-1.508484 -3.361212,-3.36122 V 37.618791 c 0,-15.148875 10.137617,-26.144115 24.106,-26.144115 13.968383,0 24.106,10.99524 24.106,26.144115 v 34.007317 c 0,1.852736 -1.508471,3.36122 -3.361211,3.36122"
       style="fill:#231f20;fill-opacity:1;fill-rule:nonzero;stroke:none;stroke-width:0.10185491"
       id="path1016-6" />
  </g>
</svg>
