<?xml version="1.0" encoding="utf-8"?>
<!-- Generator: Adobe Illustrator 16.0.0, SVG Export Plug-In . SVG Version: 6.00 Build 0)  -->
<!DOCTYPE svg PUBLIC "-//W3C//DTD SVG 1.1//EN" "http://www.w3.org/Graphics/SVG/1.1/DTD/svg11.dtd">
<svg version="1.1" id="Layer_1" xmlns="http://www.w3.org/2000/svg" xmlns:xlink="http://www.w3.org/1999/xlink" x="0px" y="0px"
	 width="100px" height="100px" viewBox="0 0 100 100" enable-background="new 0 0 100 100" xml:space="preserve">
<g>
	<g>
		<path fill="#EABF5E" d="M29.412,24.919c-0.427,0-0.848,0.023-1.271,0.032l-0.001,60.123l43.157-43.157
			C60.466,31.402,45.699,24.919,29.412,24.919z"/>
	</g>
	<g>
		<path fill="#FFD85C" d="M28.775,30.918c-0.425-0.036-0.848,0.023-1.271,0.032l0.636,54.124l37.5-37.557
			c-2.439-2.246-5.326-3.442-7.572-5.17c-1.464-1.125-2.202-2.952-3.928-3.805c-1.339-0.662-4.164-0.774-5.438-1.375
			c-1.874-0.884-2.554-2.385-4.563-3c-1.943-0.596-4.009-0.35-6.125-0.813c-1.584-0.347-2.721-1.908-4.313-2.422
			C32.293,30.479,30.446,31.06,28.775,30.918z"/>
	</g>
	<g>
		<path fill="#EF3B3B" d="M30.874,50.863c-0.965,0-1.884,0.186-2.733,0.511v14.32c0.85,0.324,1.769,0.51,2.733,0.51
			c4.236,0,7.67-3.434,7.67-7.67S35.11,50.863,30.874,50.863z"/>
	</g>
	<g>
		<path d="M31.141,48.204c-1.047,0-2.054,0.17-3,0.479v2.856c0.912-0.429,1.927-0.675,3-0.675c3.91,0,7.091,3.181,7.091,7.09
			c0,3.91-3.181,7.092-7.091,7.092c-1.073,0-2.088-0.247-3-0.676v2.857c0.946,0.307,1.953,0.477,3,0.477
			c5.376,0,9.75-4.373,9.75-9.75C40.891,52.579,36.517,48.204,31.141,48.204z"/>
	</g>
	<g>
		<path fill="#EF3B3B" d="M51.491,57.138c0.683,0.682,1.464,1.2,2.294,1.571l10.126-10.126c-0.371-0.83-0.89-1.611-1.572-2.294
			c-2.995-2.995-7.852-2.995-10.847,0.001C48.496,49.285,48.496,54.142,51.491,57.138z"/>
	</g>
	<g>
		<path d="M49.423,58.829c0.74,0.74,1.572,1.332,2.459,1.783l2.021-2.02c-0.948-0.342-1.84-0.886-2.6-1.645
			c-2.765-2.765-2.764-7.264,0-10.027c2.765-2.766,7.264-2.766,10.028,0c0.759,0.758,1.302,1.65,1.644,2.598l2.021-2.02
			c-0.452-0.887-1.043-1.719-1.784-2.459c-3.801-3.801-9.986-3.801-13.788,0S45.621,55.027,49.423,58.829z"/>
	</g>
	<g>
		<path d="M28.141,86.574c-0.193,0-0.389-0.037-0.574-0.114c-0.561-0.232-0.926-0.779-0.926-1.386l0.001-60.123
			c0-0.815,0.651-1.481,1.467-1.499l0.452-0.014c0.278-0.01,0.557-0.02,0.838-0.02c16.124,0,31.37,6.187,42.944,17.422
			c0.288,0.279,0.452,0.664,0.455,1.064c0.003,0.402-0.155,0.789-0.439,1.072L29.201,86.135
			C28.914,86.422,28.53,86.574,28.141,86.574z M29.642,26.419l-0.001,55.033l39.507-39.506
			C58.336,31.974,44.374,26.476,29.642,26.419z"/>
	</g>
	<g>
		<g>
			<path fill="#FEE59B" d="M67.753,41.712l0.91,2.918l3.996,1.508l5.63-1.613c-0.846-1.049-2.548-6.008-3.486-7.006
				C63.117,25.097,43.286,16.601,24.625,16.562c-0.527-0.001,0.62-0.01,0.095,0l-0.017,8.141
				C42.065,25.568,54.311,33.934,67.753,41.712z"/>
		</g>
	</g>
	<g>
		<path d="M78.715,38.399c-0.497-0.962-3.118-4.953-6.064-5.021c-1.589-0.035-1.849-1.011-1.96-1.24
			c-0.586-1.199-1.249-2.559-2.444-3.446c-1.2-0.891-2.696-1.133-4.019-1.345c-0.996-0.16-1.937-0.312-2.557-0.692
			c-0.618-0.381-1.178-1.152-1.772-1.969c-0.786-1.083-1.679-2.311-3.019-2.978c-1.095-0.546-2.304-0.622-3.341-0.624
			c-0.282,0-0.565,0.004-0.849,0.01c-0.264,0.005-0.527,0.01-0.789,0.01c-0.619-0.002-1.323-0.031-1.856-0.239
			c-0.673-0.261-1.36-0.917-2.089-1.61c-0.973-0.926-2.075-1.977-3.52-2.392c-1.266-0.364-2.83-0.124-4.227,0.161
			c-1.007,0.205-1.98,0.386-2.651,0.258c-0.704-0.133-1.63-0.482-2.336-1.193c-2.079-2.088-6.648-1.807-7.71-1.592
			c-10.673,2.158-3.053,13.269,1.042,13.277c1.222,0.002,2.441-0.184,3.581-0.526c0.95-0.285,1.87-0.544,2.451-0.41
			c0.607,0.136,1.293,0.747,2.019,1.396c0.859,0.768,1.834,1.639,3.059,2.012c1.05,0.318,2.422,0.205,3.651,0.032
			c1.007-0.141,1.951-0.235,2.466-0.036c0.588,0.227,1.178,0.936,1.804,1.684c0.738,0.885,1.574,1.887,2.729,2.431
			c1.162,0.547,2.472,0.554,3.627,0.56c0.97,0.005,1.887,0.01,2.43,0.314c0.557,0.313,1.041,1.104,1.554,1.938
			c0.6,0.976,1.279,2.083,2.334,2.783c1.07,0.713,2.364,0.915,3.506,1.093c0.486,0.076,1.57,0.496,2.108,1.723
			c0.478,1.09,1.063,2.171,1.829,3.123C70.27,49.079,83.704,48.077,78.715,38.399z M74.56,44.277
			c-0.834,0.325-5.156,1.425-5.904-2.634c-0.374-2.021-3.593-3.434-4.428-3.563c-0.918-0.144-1.785-0.278-2.308-0.627
			c-0.505-0.335-0.957-1.073-1.438-1.854c-0.659-1.073-1.405-2.289-2.641-2.984c-1.22-0.686-2.636-0.692-3.886-0.699
			c-0.927-0.004-1.802-0.01-2.363-0.273c-0.557-0.262-1.114-0.93-1.705-1.639c-0.803-0.963-1.712-2.053-3.025-2.561
			c-0.563-0.217-1.186-0.322-1.905-0.324c-0.7-0.002-1.39,0.095-2.057,0.188c-0.942,0.133-1.841,0.228-2.361,0.069
			c-0.594-0.181-1.245-0.763-1.936-1.38c-0.934-0.834-1.993-1.779-3.363-2.086c-0.321-0.071-0.663-0.107-1.016-0.108
			c-1.031-0.003-2.02,0.255-2.951,0.574c-3.968,1.356-5.48-2.106-5.75-2.961c-0.505-1.604-0.516-3.077,2.545-3.757
			c0.786-0.174,3.698-0.88,5.521,0.949c0.88,0.884,2.129,1.381,3.413,1.625c1.182,0.221,2.567-0.014,3.811-0.268
			c1.089-0.225,2.134-0.409,2.796-0.217c0.736,0.211,1.485,0.925,2.278,1.68c0.907,0.864,1.845,1.758,3.068,2.234
			c0.994,0.387,2.045,0.44,2.94,0.443c0.281,0,0.565-0.005,0.849-0.01c0.263-0.005,0.527-0.01,0.788-0.009
			c0.69,0.001,1.47,0.038,2.011,0.309c0.682,0.339,1.287,1.173,1.93,2.056c0.737,1.018,1.503,2.068,2.627,2.76
			c1.126,0.693,2.409,0.9,3.652,1.1c1.075,0.173,2.094,0.338,2.706,0.793c0.608,0.451,1.059,1.375,1.536,2.352
			c0.246,0.506,1.186,2.51,3.714,2.774c2.567,0.267,3.837,2.991,4.191,3.714C77.284,42.757,76.129,43.667,74.56,44.277z"/>
	</g>
</g>
</svg>
