<?xml version="1.0" encoding="UTF-8" standalone="no"?>
<!-- Created with Inkscape (http://www.inkscape.org/) -->

<svg
   xmlns:dc="http://purl.org/dc/elements/1.1/"
   xmlns:cc="http://creativecommons.org/ns#"
   xmlns:rdf="http://www.w3.org/1999/02/22-rdf-syntax-ns#"
   xmlns:svg="http://www.w3.org/2000/svg"
   xmlns="http://www.w3.org/2000/svg"
   xmlns:sodipodi="http://sodipodi.sourceforge.net/DTD/sodipodi-0.dtd"
   xmlns:inkscape="http://www.inkscape.org/namespaces/inkscape"
   width="100px"
   height="100px"
   viewBox="0 0 100 100"
   version="1.1"
   id="SVGRoot"
   inkscape:version="0.92.2 (unknown)"
   sodipodi:docname="sandwich.svg">
  <sodipodi:namedview
     id="base"
     pagecolor="#ffffff"
     bordercolor="#666666"
     borderopacity="1.0"
     inkscape:pageopacity="0.0"
     inkscape:pageshadow="2"
     inkscape:zoom="2.56"
     inkscape:cx="50"
     inkscape:cy="50"
     inkscape:document-units="px"
     inkscape:current-layer="layer1"
     showgrid="false"
     inkscape:window-width="1557"
     inkscape:window-height="876"
     inkscape:window-x="43"
     inkscape:window-y="24"
     inkscape:window-maximized="1"
     inkscape:grid-bbox="true" />
  <defs
     id="defs5560" />
  <metadata
     id="metadata5563">
    <rdf:RDF>
      <cc:Work
         rdf:about="">
        <dc:format>image/svg+xml</dc:format>
        <dc:type
           rdf:resource="http://purl.org/dc/dcmitype/StillImage" />
        <dc:title></dc:title>
      </cc:Work>
    </rdf:RDF>
  </metadata>
  <g
     id="layer1"
     inkscape:groupmode="layer"
     inkscape:label="Layer 1">
    <path
       inkscape:connector-curvature="0"
       id="path972"
       style="fill:#80cc28;fill-opacity:1;fill-rule:nonzero;stroke:none;stroke-width:0.11041632"
       d="m 15.184138,51.463564 c 0.364373,-2.37395 3.715509,-3.839175 4.361445,-5.78471 0.754143,-2.286722 -0.962831,-5.499837 0.08392,-7.257666 1.226725,-2.059263 4.893651,-1.981972 6.369917,-3.417384 1.710349,-1.663973 1.808619,-5.276796 3.610613,-6.262814 2.157535,-1.182559 5.356297,0.756352 7.241103,0.27052 3.782863,-0.977185 3.700051,-4.900276 6.766312,-3.619447 2.23041,1.969827 1.673912,6.896603 2.468909,10.933424 0.619436,3.123678 3.746426,6.447209 3.659197,10.196948 -0.0784,3.401926 -3.32574,6.687916 -3.882238,10.182591 -0.559811,3.537739 1.508287,7.661789 0.563123,10.878216 -1.0876,3.71109 -5.085776,5.96138 -6.536646,8.642286 -2.287827,4.23226 -3.940759,8.901761 -6.605104,8.493223 -3.204282,-0.67906 -1.555766,-3.378739 -4.78986,-5.472233 -1.605454,-1.03902 -5.230421,-0.204273 -6.870103,-2.000743 -1.360334,-1.48841 -0.261691,-4.910212 -1.329418,-7.022479 -0.910934,-1.801994 -4.397881,-2.874139 -4.902484,-5.192882 -0.428415,-1.964306 2.21164,-4.448674 2.197286,-6.823729 -0.01435,-2.018408 -2.764825,-4.404503 -2.405972,-6.743121" />
    <path
       inkscape:connector-curvature="0"
       id="path974"
       style="fill:#231f20;fill-opacity:1;fill-rule:nonzero;stroke:none;stroke-width:0.11041632"
       d="m 31.633962,29.956673 c -0.536624,0 -0.938539,0.0784 -1.228934,0.236292 -0.422895,0.231875 -0.841373,1.355912 -1.178143,2.259118 -0.473686,1.267578 -1.009204,2.704096 -2.072514,3.738696 -0.914247,0.888851 -2.18293,1.2996 -3.408552,1.695994 -1.138392,0.367687 -2.31543,0.748624 -2.691949,1.382413 -0.240707,0.40302 -0.05852,1.563495 0.08722,2.496513 0.217519,1.385725 0.463748,2.958053 -0.02208,4.431007 -0.425104,1.278621 -1.44535,2.229305 -2.432472,3.14797 -0.861248,0.800518 -1.751203,1.629745 -1.866036,2.369533 -0.109312,0.715498 0.483624,1.753411 1.057788,2.757096 0.66802,1.171518 1.358121,2.381682 1.368059,3.724342 0.0099,1.555768 -0.724331,2.966888 -1.373579,4.212385 -0.404124,0.775123 -0.95731,1.83622 -0.862352,2.270156 0.15348,0.702248 1.136184,1.42327 2.085765,2.119994 1.034601,0.759661 2.10343,1.544721 2.677596,2.677593 0.668018,1.324996 0.700039,2.853163 0.726539,4.20355 0.01877,0.89327 0.04306,2.11668 0.347812,2.45014 0.517852,0.567537 1.775494,0.694522 2.991177,0.814873 1.247704,0.124773 2.539576,0.25396 3.555406,0.912036 1.994119,1.29077 2.591471,2.910577 2.985657,3.983824 0.37652,1.020246 0.41627,1.128457 1.154955,1.242183 0.118146,0.01656 0.232978,0.0265 0.346708,0.0265 2.197284,0 4.256548,-3.435051 5.155338,-6.828143 0.465956,-1.762244 1.72691,-3.265013 2.947011,-4.718095 1.170413,-1.39566 2.38168,-2.838803 2.853158,-4.444251 0.391977,-1.334934 0.08612,-3.072889 -0.239604,-4.910219 -0.332353,-1.881495 -0.676852,-3.828128 -0.369894,-5.761521 0.301437,-1.898055 1.216788,-3.62055 2.102326,-5.286732 0.887747,-1.668391 1.726911,-3.246241 1.758932,-4.676131 0.04638,-1.989702 -0.723226,-3.990446 -1.467433,-5.926044 -0.500186,-1.2996 -1.016934,-2.643368 -1.280829,-3.978301 -0.251749,-1.269788 -0.324624,-2.678699 -0.397498,-4.043445 -0.162312,-3.090553 -0.373208,-5.295568 -1.613183,-5.513087 -0.231874,-0.04085 -0.438353,-0.06184 -0.613915,-0.06184 -0.505707,0 -0.644831,0.112624 -1.283038,0.813768 -0.754143,0.828123 -1.78764,1.962098 -3.987133,2.530742 -1.000372,0.257269 -2.352972,0.09385 -3.619447,-0.107104 -0.749726,-0.118145 -1.523745,-0.241812 -2.192868,-0.241812 z m 2.248076,56.464697 c -0.279354,0 -0.562019,-0.02211 -0.849102,-0.06625 -2.668762,-0.409647 -3.32574,-2.191767 -3.759676,-3.369903 -0.34229,-0.926392 -0.611706,-1.657351 -1.679432,-2.348552 -0.342291,-0.221937 -1.307329,-0.317999 -2.083556,-0.396397 -1.663974,-0.165624 -3.735384,-0.37321 -5.107859,-1.87708 -1.145017,-1.253222 -1.182558,-3.040866 -1.213475,-4.61761 -0.02209,-1.044536 -0.04306,-2.124408 -0.372103,-2.774758 -0.215312,-0.426212 -0.993747,-0.998171 -1.680537,-1.50167 -1.311745,-0.961723 -2.942595,-2.159743 -3.362176,-4.086503 -0.35002,-1.604346 0.452706,-3.144662 1.160475,-4.504986 0.493561,-0.947371 1.003684,-1.927869 0.999268,-2.659929 -0.0033,-0.475896 -0.496874,-1.340457 -0.933018,-2.10343 -0.814873,-1.427686 -1.737953,-3.046388 -1.453079,-4.902487 0.287082,-1.878182 1.665078,-3.160115 2.881866,-4.291882 0.650353,-0.605081 1.387933,-1.291871 1.54362,-1.763349 0.234083,-0.71108 0.06184,-1.813036 -0.104896,-2.878553 -0.252853,-1.609869 -0.513435,-3.273845 0.337875,-4.703735 1.016935,-1.707037 2.959157,-2.335305 4.520444,-2.839908 0.823706,-0.266103 1.757828,-0.56754 2.117784,-0.918664 0.529998,-0.514539 0.909831,-1.534786 1.278621,-2.521908 0.556498,-1.491725 1.186976,-3.183303 2.690846,-4.005905 0.790581,-0.432831 1.713662,-0.643727 2.820034,-0.643727 0.929705,0 1.875972,0.150167 2.710719,0.282666 0.688998,0.109312 1.339351,0.211999 1.839536,0.211999 0.228563,0 0.363271,-0.02208 0.435041,-0.04196 1.242184,-0.320208 1.762245,-0.89106 2.365118,-1.552454 0.727642,-0.799414 1.724702,-1.895848 3.732071,-1.895848 0.373207,0 0.760769,0.03754 1.18808,0.11152 3.93082,0.691209 4.16159,5.07805 4.34709,8.602539 0.06625,1.2466 0.133604,2.536262 0.338978,3.574176 0.207583,1.054476 0.652561,2.20943 1.122934,3.431739 0.820394,2.131035 1.7501,4.548048 1.688266,7.192519 -0.0519,2.213847 -1.116309,4.217903 -2.146494,6.154605 -0.791684,1.490621 -1.541411,2.899533 -1.755619,4.249926 -0.219728,1.384621 0.06184,2.977928 0.359957,4.666188 0.377625,2.133244 0.767394,4.339362 0.155688,6.418504 -0.66581,2.271266 -2.167472,4.062214 -3.494677,5.642272 -1.030184,1.227831 -2.004057,2.388304 -2.281202,3.436161 -1.135079,4.286362 -4.004799,9.292634 -8.35741,9.292634" />
    <path
       inkscape:connector-curvature="0"
       id="path976"
       style="fill:#80cc28;fill-opacity:1;fill-rule:nonzero;stroke:none;stroke-width:0.11041632"
       d="m 85.205753,60.312327 c -0.364374,2.375055 -3.715512,3.840278 -4.361448,5.786919 -0.754146,2.284517 0.962834,5.498734 -0.08391,7.256564 -1.22673,2.058158 -4.893656,1.981971 -6.369917,3.41738 -1.710354,1.663979 -1.807518,5.275695 -3.608411,6.265028 -2.158634,1.180347 -5.358498,-0.758561 -7.243305,-0.272734 -3.78176,0.977184 -3.700052,4.900281 -6.766314,3.621661 -2.229305,-1.970932 -1.673911,-6.896603 -2.468908,-10.93674 -0.619436,-3.123678 -3.746426,-6.446105 -3.659198,-10.195843 0.0795,-3.401927 3.326845,-6.687917 3.882238,-10.183697 0.559811,-3.536634 -1.508286,-7.660683 -0.563123,-10.877111 1.088705,-3.711092 5.08688,-5.961378 6.535542,-8.640077 2.290031,-4.232257 3.941861,-8.905076 6.607314,-8.495432 3.203178,0.680165 1.554659,3.378739 4.78986,5.473338 1.605448,1.037913 5.229311,0.203165 6.870103,1.999639 1.360324,1.488412 0.261688,4.911318 1.328309,7.022478 0.910935,1.801994 4.398986,2.875241 4.903586,5.191775 0.427312,1.966515 -2.211642,4.450882 -2.198391,6.824833 0.01433,2.019515 2.764827,4.403402 2.405977,6.742019" />
    <path
       inkscape:connector-curvature="0"
       id="path978"
       style="fill:#231f20;fill-opacity:1;fill-rule:nonzero;stroke:none;stroke-width:0.11041632"
       d="m 66.50785,28.668115 c -2.198392,0 -4.256549,3.436156 -5.154234,6.828145 -0.467061,1.763349 -1.728014,3.265011 -2.94701,4.71809 -1.171517,1.395662 -2.382784,2.839908 -2.853158,4.445361 -0.393081,1.334933 -0.08722,3.071782 0.2385,4.909109 0.332353,1.881495 0.676852,3.82703 0.369895,5.761524 -0.301437,1.899157 -1.216788,3.621651 -2.103432,5.287834 -0.886643,1.669494 -1.724703,3.245138 -1.757828,4.675033 -0.04638,1.989696 0.724332,3.99044 1.467434,5.926044 0.50129,1.299597 1.016934,2.643366 1.281933,3.97719 0.240708,1.223418 0.320207,2.424742 0.388666,3.483638 0.203166,3.115951 0.430624,3.658089 1.622015,3.866776 0.793894,0.140235 1.34708,0.206485 1.740161,0.206485 0.465957,0 0.677956,-0.08613 1.310642,-0.341187 0.608395,-0.246234 1.443143,-0.580795 2.833279,-0.939646 0.99927,-0.257273 2.351867,-0.09275 3.619449,0.106 1.349285,0.215312 2.770343,0.364374 3.422904,0.0058 0.420686,-0.230773 0.840271,-1.354808 1.175934,-2.259118 0.473685,-1.267582 1.009207,-2.704094 2.072517,-3.7387 0.914247,-0.88995 2.18293,-1.299597 3.408551,-1.695995 1.138395,-0.367686 2.315431,-0.747513 2.693054,-1.382409 0.239601,-0.403023 0.05739,-1.564596 -0.08722,-2.496516 -0.218625,-1.386823 -0.46375,-2.958053 0.02095,-4.431001 0.4251,-1.27752 1.445347,-2.228205 2.432469,-3.147975 0.861246,-0.800513 1.751205,-1.629745 1.866032,-2.370633 0.108211,-0.714397 -0.483623,-1.752307 -1.056684,-2.755992 -0.668013,-1.17041 -1.359221,-2.380577 -1.369159,-3.723239 -0.0075,-1.554661 0.726537,-2.966886 1.374683,-4.212383 0.403022,-0.775123 0.956208,-1.838431 0.861248,-2.271263 -0.153477,-0.702248 -1.135084,-1.422162 -2.084658,-2.119993 -1.034607,-0.759664 -2.104541,-1.544725 -2.678703,-2.677596 -0.668021,-1.323892 -0.697834,-2.853158 -0.726536,-4.202445 -0.01764,-0.893269 -0.04199,-2.11889 -0.345609,-2.450139 -0.520064,-0.568688 -1.77881,-0.694562 -2.994494,-0.817124 -1.247698,-0.123694 -2.537358,-0.252881 -3.55209,-0.908754 -1.996321,-1.291871 -2.59257,-2.912784 -2.987865,-3.984925 -0.376515,-1.021351 -0.415163,-1.128456 -1.15495,-1.242184 -0.117046,-0.01877 -0.232983,-0.02761 -0.34671,-0.02761 z m -7.707058,57.397718 c -0.598456,0 -1.31285,-0.0795 -2.316534,-0.256171 -3.946279,-0.696724 -4.170425,-4.143924 -4.351507,-6.913166 -0.06515,-1.005888 -0.132499,-2.044908 -0.333458,-3.057428 -0.207582,-1.054473 -0.65256,-2.208321 -1.12183,-3.429529 -0.820392,-2.132141 -1.750098,-4.549149 -1.689369,-7.193626 0.0519,-2.213844 1.116308,-4.215689 2.146493,-6.152394 0.791686,-1.491722 1.541412,-2.900632 1.75562,-4.252132 0.219728,-1.385724 -0.06184,-2.977928 -0.359957,-4.666193 -0.37652,-2.133244 -0.767393,-4.339361 -0.155687,-6.418501 0.665811,-2.271264 2.168576,-4.062216 3.494677,-5.641169 1.030184,-1.228934 2.004056,-2.388306 2.2812,-3.437261 1.13508,-4.287466 4.004799,-9.292638 8.35741,-9.292638 0.278249,0 0.562022,0.02209 0.849099,0.06625 2.669866,0.409645 3.326849,2.191764 3.760785,3.37101 0.341187,0.925289 0.6106,1.657349 1.679432,2.349659 0.340078,0.21973 1.305121,0.316896 2.081346,0.394187 1.66397,0.165624 3.735387,0.373207 5.110069,1.877078 1.146122,1.253225 1.18145,3.040865 1.213473,4.618714 0.02095,1.044538 0.04199,2.12441 0.370999,2.773658 0.215312,0.426207 0.993747,0.998164 1.681643,1.502766 1.310637,0.960622 2.942593,2.157535 3.361068,4.0843 0.350023,1.605453 -0.452701,3.146865 -1.159371,4.507193 -0.494663,0.947373 -1.004786,1.927869 -1.000372,2.65993 0.0033,0.474791 0.497983,1.33935 0.93302,2.103431 0.814872,1.427684 1.737956,3.04418 1.454183,4.900275 -0.288187,1.878182 -1.666182,3.161217 -2.882967,4.294088 -0.650358,0.606185 -1.387934,1.291871 -1.543621,1.762244 -0.234085,0.709983 -0.06186,1.811933 0.10489,2.877452 0.252859,1.609871 0.513436,3.274952 -0.337874,4.705947 -1.016934,1.705932 -2.960256,2.334196 -4.520438,2.838804 -0.823708,0.266101 -1.758933,0.567537 -2.117791,0.91756 -0.528889,0.515638 -0.909825,1.535885 -1.277511,2.523007 -0.556499,1.49173 -1.186981,3.182201 -2.689742,4.007011 -0.791685,0.432835 -1.713667,0.642623 -2.818929,0.642623 -0.930809,0 -1.878181,-0.150164 -2.712929,-0.282663 -0.687896,-0.109312 -1.338245,-0.210898 -1.838431,-0.210898 -0.229671,0 -0.364374,0.02095 -0.436148,0.03975 -1.179245,0.304749 -1.868243,0.582998 -2.422531,0.804934 -0.774021,0.312476 -1.440934,0.581898 -2.54841,0.581898" />
    <path
       inkscape:connector-curvature="0"
       id="path980"
       style="fill:#fbd73f;fill-opacity:1;fill-rule:nonzero;stroke:none;stroke-width:0.11041632"
       d="m 81.628264,29.694987 c 0,-5.18515 -4.201347,-9.386491 -9.383182,-9.386491 h -44.76167 c -5.186254,0 -9.386491,4.201341 -9.386491,9.386491 0,3.8723 2.345243,7.195832 5.693065,8.626827 v 41.831225 c 0,3.083928 2.50093,5.583748 5.584858,5.583748 h 40.894893 c 3.083928,0 5.583747,-2.49982 5.583747,-5.583748 V 38.358251 c 3.39199,-1.415537 5.77478,-4.760047 5.77478,-8.663264" />
    <path
       inkscape:connector-curvature="0"
       id="path982"
       style="fill:#231f20;fill-opacity:1;fill-rule:nonzero;stroke:none;stroke-width:0.11041632"
       d="m 27.483412,21.964741 c -4.263175,0 -7.730246,3.468176 -7.730246,7.730246 0,3.098282 1.840639,5.886294 4.688277,7.10529 l 1.004787,0.428415 v 42.924347 c 0,2.165259 1.762245,3.927503 3.928614,3.927503 h 40.894893 c 2.166368,0 3.927503,-1.762244 3.927503,-3.927503 V 37.254088 l 1.019146,-0.425102 c 2.88849,-1.204642 4.755633,-4.0048 4.755633,-7.133999 0,-4.26207 -3.467075,-7.730246 -7.726937,-7.730246 z m 42.786325,65.42829 H 29.374844 c -3.993759,0 -7.241103,-3.248442 -7.241103,-7.239992 V 39.354207 c -3.491364,-1.928973 -5.693065,-5.609149 -5.693065,-9.65922 0,-6.08946 4.953276,-11.042736 11.042736,-11.042736 h 44.76167 c 6.087254,0 11.039427,4.953276 11.039427,11.042736 0,4.089821 -2.233728,7.787663 -5.774779,9.70449 v 40.753562 c 0,3.99155 -3.247341,7.239992 -7.239993,7.239992" />
    <path
       inkscape:connector-curvature="0"
       id="path984"
       style="fill:#e6bb45;fill-opacity:1;fill-rule:nonzero;stroke:none;stroke-width:0.11041632"
       d="m 36.088155,57.396235 c 0,0.815974 -0.69231,1.480683 -1.545828,1.480683 -0.853518,0 -1.544724,-0.664709 -1.544724,-1.480683 0,-0.817084 0.691206,-1.481789 1.544724,-1.481789 0.853518,0 1.545828,0.664705 1.545828,1.481789" />
    <path
       inkscape:connector-curvature="0"
       id="path986"
       style="fill:#e6bb45;fill-opacity:1;fill-rule:nonzero;stroke:none;stroke-width:0.11041632"
       d="m 50.194945,64.246464 c 0,0.861247 -0.697832,1.559073 -1.554662,1.559073 -0.857936,0 -1.553558,-0.697826 -1.553558,-1.559073 0,-0.860147 0.695622,-1.55798 1.553558,-1.55798 0.85683,0 1.554662,0.697833 1.554662,1.55798" />
    <path
       inkscape:connector-curvature="0"
       id="path988"
       style="fill:#e6bb45;fill-opacity:1;fill-rule:nonzero;stroke:none;stroke-width:0.11041632"
       d="m 67.939947,59.461017 c 0,0.7166 -0.588514,1.299598 -1.317261,1.299598 -0.727647,0 -1.318371,-0.582998 -1.318371,-1.299598 0,-0.716599 0.590724,-1.299597 1.318371,-1.299597 0.728747,0 1.317261,0.582998 1.317261,1.299597" />
    <path
       inkscape:connector-curvature="0"
       id="path990"
       style="fill:#e6bb45;fill-opacity:1;fill-rule:nonzero;stroke:none;stroke-width:0.11041632"
       d="m 36.087051,71.00063 c 0,0.774013 -0.602873,1.403386 -1.345974,1.403386 -0.741998,0 -1.344872,-0.629373 -1.344872,-1.403386 0,-0.775122 0.602874,-1.403395 1.344872,-1.403395 0.743101,0 1.345974,0.628273 1.345974,1.403395" />
    <path
       inkscape:connector-curvature="0"
       id="path992"
       style="fill:#e6bb45;fill-opacity:1;fill-rule:nonzero;stroke:none;stroke-width:0.11041632"
       d="m 63.375336,71.728268 c 0,0.684584 -0.554287,1.239981 -1.238871,1.239981 -0.685685,0 -1.241074,-0.555397 -1.241074,-1.239981 0,-0.683474 0.555389,-1.238871 1.241074,-1.238871 0.684584,0 1.238871,0.555397 1.238871,1.238871" />
    <path
       inkscape:connector-curvature="0"
       id="path994"
       style="fill:#e6bb45;fill-opacity:1;fill-rule:nonzero;stroke:none;stroke-width:0.11041632"
       d="m 33.995767,29.538196 c 0,0.817081 -0.692311,1.480683 -1.544725,1.480683 -0.855726,0 -1.546933,-0.663602 -1.546933,-1.480683 0,-0.817081 0.691207,-1.480683 1.546933,-1.480683 0.852414,0 1.544725,0.663602 1.544725,1.480683" />
    <path
       inkscape:connector-curvature="0"
       id="path996"
       style="fill:#e6bb45;fill-opacity:1;fill-rule:nonzero;stroke:none;stroke-width:0.11041632"
       d="m 57.486839,50.665255 c 0,0.860142 -0.696727,1.557974 -1.554662,1.557974 -0.857935,0 -1.554663,-0.697832 -1.554663,-1.557974 0,-0.861248 0.696728,-1.559079 1.554663,-1.559079 0.857935,0 1.554662,0.697831 1.554662,1.559079" />
    <path
       inkscape:connector-curvature="0"
       id="path998"
       style="fill:#e6bb45;fill-opacity:1;fill-rule:nonzero;stroke:none;stroke-width:0.11041632"
       d="m 67.939947,32.318479 c 0,0.716602 -0.588514,1.298495 -1.317261,1.298495 -0.727647,0 -1.318371,-0.581893 -1.318371,-1.298495 0,-0.716602 0.590724,-1.2996 1.318371,-1.2996 0.728747,0 1.317261,0.582998 1.317261,1.2996" />
    <path
       inkscape:connector-curvature="0"
       id="path1000"
       style="fill:#e6bb45;fill-opacity:1;fill-rule:nonzero;stroke:none;stroke-width:0.11041632"
       d="m 39.877644,45.260376 c 0,0.774018 -0.602873,1.402287 -1.345976,1.402287 -0.741997,0 -1.34487,-0.628269 -1.34487,-1.402287 0,-0.775123 0.602873,-1.402287 1.34487,-1.402287 0.743103,0 1.345976,0.627164 1.345976,1.402287" />
    <path
       inkscape:connector-curvature="0"
       id="path1002"
       style="fill:#e6bb45;fill-opacity:1;fill-rule:nonzero;stroke:none;stroke-width:0.11041632"
       d="m 58.411023,36.792548 c 0,0.684581 -0.55429,1.238871 -1.239975,1.238871 -0.683478,0 -1.238871,-0.55429 -1.238871,-1.238871 0,-0.684581 0.555393,-1.238871 1.238871,-1.238871 0.685685,0 1.239975,0.55429 1.239975,1.238871" />
  </g>
</svg>
