<?xml version="1.0" encoding="utf-8"?>
<!-- Generator: Adobe Illustrator 16.0.0, SVG Export Plug-In . SVG Version: 6.00 Build 0)  -->
<!DOCTYPE svg PUBLIC "-//W3C//DTD SVG 1.1//EN" "http://www.w3.org/Graphics/SVG/1.1/DTD/svg11.dtd">
<svg version="1.1" id="Layer_1" xmlns="http://www.w3.org/2000/svg" xmlns:xlink="http://www.w3.org/1999/xlink" x="0px" y="0px"
	 width="100px" height="100px" viewBox="0 0 100 100" enable-background="new 0 0 100 100" xml:space="preserve">
<g>
	<g>
		<path d="M36.414,33.002c-0.018-0.165-1.825-16.59-2.873-22.81c-0.046-0.272-0.187-0.919-0.504-1.055
			c-0.001,0-0.003-0.001-0.004-0.001c-0.661-0.271-2.288,0.488-3.161,1.118c-0.027,0.02-0.059,0.041-0.088,0.06l-9.262,5.758
			l-1.585-2.548l9.219-5.73c0.68-0.487,3.605-2.415,6.009-1.435c0.895,0.364,1.979,1.221,2.334,3.336
			c1.063,6.305,2.823,22.304,2.897,22.982L36.414,33.002z"/>
	</g>
	<g>
		<ellipse cx="53.229" cy="90.664" rx="21.727" ry="3.82"/>
	</g>
	<g>
		<path fill="#EAE6D8" d="M70.135,90.391c0,0-1.32,0-15,0c-13.945,0-19,0-19,0l-6-66c0,0,13.659,0,25,0c11.576,0,21,0,21,0
			L70.135,90.391z"/>
	</g>
	<g>
		<polygon fill="#DCD6CA" points="71.282,24.644 65.622,90.189 70.168,90.023 77.187,24.439 71.404,24.296 		"/>
	</g>
	<g>
		<polygon fill="#F5F3EE" points="33.377,25.022 39.688,89.602 36.063,89.602 29.104,24.519 		"/>
	</g>
	<g>
		<polygon fill="#EF3B3B" points="35.854,75.439 32.479,38.196 73.979,38.196 70.354,75.439 		"/>
	</g>
	<g>
		<polygon fill="#D33333" points="70.438,38.189 67.123,76.551 70.438,76.551 74.955,37.362 		"/>
	</g>
	<g>
		<polygon fill="#F05555" points="34.877,37.772 38.188,75.771 34.806,75.771 31.104,36.855 		"/>
	</g>
	<g>
		<path d="M70.135,91.891h-34c-0.775,0-1.424-0.592-1.494-1.363l-6-66c-0.038-0.419,0.103-0.836,0.387-1.147
			c0.284-0.311,0.686-0.488,1.107-0.488h46c0.422,0,0.823,0.177,1.107,0.488c0.284,0.312,0.425,0.728,0.387,1.147l-6,66
			C71.559,91.299,70.91,91.891,70.135,91.891z M37.505,88.891h31.26l5.728-63H31.777L37.505,88.891z"/>
	</g>
	<g>
		<path fill="#EAE6D8" d="M29.135,18.391c0,0,8.32,0,22,0c13.945,0,26,0,26,0l2,6c0,0-16.659,0-28,0c-11.576,0-24,0-24,0
			L29.135,18.391z"/>
	</g>
	<g>
		<polygon fill="#F5F3EE" points="27.821,17.939 36.133,18.189 34.32,23.939 26.57,23.939 		"/>
	</g>
	<g>
		<polygon fill="#DCD6CA" points="66.854,18.626 68.479,24.439 78.166,24.519 76.282,18.391 		"/>
	</g>
	<g>
		<path d="M79.154,25.891c-0.005,0-0.013,0-0.02,0h-52c-0.482,0-0.935-0.232-1.217-0.623s-0.358-0.894-0.206-1.351l2-6
			c0.204-0.613,0.777-1.026,1.423-1.026h48c0.646,0,1.219,0.413,1.423,1.026l1.927,5.778c0.108,0.208,0.17,0.445,0.17,0.696
			C80.654,25.22,79.983,25.891,79.154,25.891z M29.216,22.891h47.838l-1-3H30.216L29.216,22.891z"/>
	</g>
	<g>
		<g>
			<circle fill="#FFD252" cx="53.135" cy="57.391" r="12.488"/>
		</g>
	</g>
	<g>
		<g>
			<path fill="#F8B51C" d="M61.965,48.561L61.965,48.561L44.303,66.223l0.001,0.002C49.18,71.1,57.088,71.1,61.965,66.223
				C66.842,61.344,66.842,53.438,61.965,48.561z"/>
		</g>
	</g>
	<g>
		<g>
			<path d="M53.135,71.381c-7.713,0-13.988-6.277-13.988-13.99c0-7.713,6.275-13.988,13.988-13.988s13.988,6.275,13.988,13.988
				C67.123,65.104,60.848,71.381,53.135,71.381z M53.135,46.402c-6.059,0-10.988,4.93-10.988,10.988s4.93,10.99,10.988,10.99
				s10.988-4.932,10.988-10.99S59.193,46.402,53.135,46.402z"/>
		</g>
	</g>
	<g>
		<line fill="#E1EBEC" x1="74.782" y1="37.362" x2="31.313" y2="37.362"/>
	</g>
	<g>
		<path d="M74.782,38.862H31.313c-0.828,0-1.5-0.671-1.5-1.5s0.672-1.5,1.5-1.5h43.469c0.828,0,1.5,0.671,1.5,1.5
			S75.61,38.862,74.782,38.862z"/>
	</g>
	<g>
		<line fill="#E1EBEC" x1="34.877" y1="76.551" x2="71.282" y2="76.551"/>
	</g>
	<g>
		<path d="M71.282,78.051H34.877c-0.828,0-1.5-0.672-1.5-1.5s0.672-1.5,1.5-1.5h36.405c0.828,0,1.5,0.672,1.5,1.5
			S72.11,78.051,71.282,78.051z"/>
	</g>
</g>
</svg>
